<svg width="13" height="15" viewBox="0 0 13 15" fill="none" xmlns="http://www.w3.org/2000/svg">
<path d="M5.2638 5.63583V11.5576C5.2638 11.7393 5.11649 11.8866 4.93481 11.8866H4.27684C4.09515 11.8866 3.94785 11.7393 3.94785 11.5576V5.63583C3.94785 5.45414 4.09515 5.30684 4.27684 5.30684H4.93481C5.11649 5.30684 5.2638 5.45414 5.2638 5.63583ZM8.00536 5.30684H7.34739C7.1657 5.30684 7.0184 5.45414 7.0184 5.63583V11.5576C7.0184 11.7393 7.1657 11.8866 7.34739 11.8866H8.00536C8.18704 11.8866 8.33435 11.7393 8.33435 11.5576V5.63583C8.33435 5.45414 8.18704 5.30684 8.00536 5.30684ZM11.6242 2.67494C11.9876 2.67494 12.2822 2.96952 12.2822 3.33291V3.6619C12.2822 3.84358 12.1349 3.99089 11.9532 3.99089H11.4049V13.2025C11.4049 13.9293 10.8157 14.5185 10.0889 14.5185H2.19325C1.46646 14.5185 0.8773 13.9293 0.8773 13.2025V3.99089H0.328987C0.147304 3.99089 0 3.84358 0 3.6619V3.33291C0 2.96952 0.294581 2.67494 0.657975 2.67494H2.698L3.63062 1.12058C3.74754 0.925721 3.91293 0.764458 4.11068 0.652495C4.30843 0.540533 4.5318 0.481687 4.75905 0.481689L7.52317 0.481689C7.75042 0.481687 7.97379 0.540533 8.17155 0.652495C8.3693 0.764458 8.53468 0.925721 8.6516 1.12058L9.5842 2.67494H11.6242ZM4.23267 2.67494H8.04955L7.5711 1.8775C7.55648 1.85314 7.53581 1.83299 7.51109 1.81899C7.48637 1.80499 7.45845 1.79764 7.43004 1.79764H4.85221C4.8238 1.79764 4.79588 1.80499 4.77116 1.81899C4.74644 1.83299 4.72577 1.85314 4.71115 1.8775L4.23267 2.67494ZM10.0889 3.99089H2.19325V13.038C2.19325 13.0817 2.21058 13.1235 2.24143 13.1544C2.27228 13.1852 2.31412 13.2025 2.35774 13.2025H9.92445C9.96808 13.2025 10.0099 13.1852 10.0408 13.1544C10.0716 13.1235 10.0889 13.0817 10.0889 13.038V3.99089Z" fill="#7E8483"/>
</svg>
