<svg width="18" height="18" viewBox="0 0 18 18" fill="none" xmlns="http://www.w3.org/2000/svg">
<path fill-rule="evenodd" clip-rule="evenodd" d="M3 2.25H5.625C6.0375 2.25 6.375 2.5875 6.375 3C6.375 3.9375 6.525 4.8375 6.8025 5.6775C6.885 5.94 6.825 6.2325 6.615 6.4425L4.965 8.0925C6.045 10.215 7.785 11.9475 9.9075 13.035L11.5575 11.385C11.7075 11.2425 11.895 11.1675 12.09 11.1675C12.165 11.1675 12.2475 11.175 12.3225 11.205C13.1625 11.4825 14.07 11.6325 15 11.6325C15.4125 11.6325 15.75 11.97 15.75 12.3825V15C15.75 15.4125 15.4125 15.75 15 15.75C7.9575 15.75 2.25 10.0425 2.25 3C2.25 2.5875 2.5875 2.25 3 2.25ZM4.905 3.75C4.95 4.4175 5.0625 5.07 5.2425 5.6925L4.3425 6.5925C4.035 5.6925 3.84 4.74 3.7725 3.75H4.905ZM12.3 12.765C12.9375 12.945 13.59 13.0575 14.25 13.1025V14.22C13.26 14.1525 12.3075 13.9575 11.4 13.6575L12.3 12.765Z" fill="#B1B5B4"/>
</svg>
