<svg width="15" height="15" viewBox="0 0 15 15" fill="none" xmlns="http://www.w3.org/2000/svg">
<path d="M14.1506 0H1.42305C1.04649 0 0.741211 0.30528 0.741211 0.681835V3.40917C0.741211 3.60131 0.822258 3.7845 0.964398 3.91373L5.74133 8.25602V14.3182C5.74133 14.5545 5.86365 14.7739 6.06466 14.8982C6.17421 14.9658 6.29848 15 6.42317 15C6.5274 15 6.6319 14.9761 6.72808 14.928L9.45542 13.5643C9.68643 13.4488 9.83234 13.2128 9.83234 12.9545V8.25602L14.6093 3.91373C14.7514 3.7845 14.8325 3.60131 14.8325 3.40917V0.681835C14.8325 0.30528 14.5272 0 14.1506 0ZM8.69186 7.44986C8.54972 7.57909 8.46867 7.76228 8.46867 7.95442V12.5332L7.105 13.215V7.95442C7.105 7.76228 7.02395 7.57909 6.88181 7.44986L3.18677 4.09101H12.3869L8.69186 7.44986ZM13.4688 2.72734H2.10488V1.36367H13.4688V2.72734Z" fill="#7E8483"/>
</svg>
