<svg width="20" height="20" viewBox="0 0 20 20" fill="none" xmlns="http://www.w3.org/2000/svg">
<path d="M9.33146 16.5177L4.859 12.0308C4.66632 11.8478 3 10.2145 3 8.18179C3 5.66662 4.54148 4 7.12508 4C8.24862 4 9.31246 4.63226 10.1646 5.38099C11.0141 4.63226 12.0806 4 13.2041 4C15.6928 4 17.3292 5.56679 17.3292 8.18179C17.3292 9.62379 16.4662 11.0519 15.4811 12.028L15.4702 12.0391L10.9978 16.5177C10.7758 16.7415 10.4765 16.8671 10.1646 16.8671C9.85274 16.8671 9.55341 16.7415 9.33146 16.5177ZM5.76543 11.0741L10.1646 15.4888L14.5557 11.088C15.2965 10.3392 16.0266 9.24943 16.0266 8.18179C16.0266 6.32661 14.9899 5.33107 13.2041 5.33107C11.9232 5.33107 10.6857 6.6982 10.1646 7.22786C9.70326 6.75643 8.42774 5.33107 7.12508 5.33107C5.33664 5.33107 4.30266 6.32661 4.30266 8.18179C4.30266 9.21615 5.02726 10.3697 5.76543 11.0741Z" fill="#3B4D49"/>
</svg>
