<svg width="94" height="113" viewBox="0 0 94 113" fill="none" xmlns="http://www.w3.org/2000/svg">
<path d="M89.8476 7.5012C90.3809 7.5012 90.4476 6.63461 89.8476 6.54573C88.9919 6.30088 88.0873 6.28275 87.2225 6.49311C86.3576 6.70348 85.5623 7.1351 84.9147 7.74563C82.9968 9.79749 81.7758 12.4027 81.4261 15.1895C81.3306 15.8034 81.3772 16.4311 81.562 17.0243C81.7469 17.6175 82.0653 18.1604 82.4927 18.6114C82.5319 20.0984 83.0989 21.523 84.0922 22.6303C85.0855 23.7376 86.4404 24.4554 87.9145 24.6553C91.1586 24.8553 92.8918 21.8556 93.2918 18.7447C93.9536 18.3658 94.5235 17.8454 94.9608 17.2207C95.3981 16.596 95.692 15.8823 95.8215 15.1308C95.951 14.3793 95.9129 13.6085 95.7099 12.8734C95.5069 12.1384 95.144 11.4572 94.6472 10.8787C93.5861 9.84295 92.1888 9.22185 90.709 9.12809C89.2291 9.03432 87.7646 9.4741 86.5812 10.3676H85.9813C85.6204 10.3404 85.2578 10.3858 84.9147 10.501C85.3204 9.5482 86.0143 8.74648 86.8991 8.20844C87.7839 7.6704 88.8151 7.42307 89.8476 7.5012ZM89.7143 21.4334C88.0478 23.3443 86.0702 21.8111 85.2702 20.0335L85.9813 20.189C86.6896 20.4656 87.467 20.5123 88.2033 20.3224C89.012 20.3041 89.8165 20.1998 90.6031 20.0113C90.3714 20.5227 90.0725 21.001 89.7143 21.4334ZM93.914 14.7673C93.8352 15.2489 93.645 15.7054 93.3585 16.1005C93.2539 15.3238 93.0132 14.5716 92.6474 13.8785C92.0168 12.834 91.0988 11.9932 90.0032 11.4564C92.0252 11.3231 94.2473 12.3897 93.914 14.7228V14.7673ZM86.9368 12.6786C88.0049 12.9938 89.0013 13.5146 89.8699 14.2118C90.2944 14.5535 90.641 14.9822 90.8862 15.4689C91.1315 15.9556 91.2698 16.4892 91.2919 17.0337C91.198 16.99 91.0956 16.9674 90.992 16.9674C90.8884 16.9674 90.786 16.99 90.692 17.0337C89.381 17.5893 87.9589 18.4559 86.4702 17.7892C85.8357 17.5162 85.3332 17.0058 85.0703 16.3671C85.1881 14.9288 85.8568 13.5914 86.9368 12.6341V12.6786Z" fill="#C2D4C9"/>
<path d="M55.274 25.3443C57.3777 23.2356 58.8376 20.5715 59.4829 17.6636C60.1282 14.7557 59.9324 11.7241 58.9182 8.92346C58.4249 7.8208 57.7018 6.83613 56.7975 6.03526C55.8932 5.23439 54.8283 4.63577 53.6741 4.2794C53.1631 3.63501 52.6297 2.96839 52.1187 2.27956C51.4952 1.29709 50.5432 0.567922 49.4322 0.222012C48.3212 -0.123899 47.1235 -0.0640716 46.0525 0.39083C44.2095 1.17512 42.7161 2.60527 41.8529 4.41272C39.2531 5.01267 38.0977 8.99012 37.8755 12.3676C37.5833 16.2105 38.7407 20.0235 41.1196 23.0556C41.3418 23.4334 41.564 23.8111 41.8084 24.1889C42.5113 25.2908 43.4585 26.216 44.5766 26.8928C45.6947 27.5696 46.9537 27.9797 48.2559 28.0915C49.5581 28.2032 50.8686 28.0135 52.0856 27.5371C53.3027 27.0607 54.3937 26.3104 55.274 25.3443ZM57.496 13.3453C57.4355 13.1908 57.3611 13.0421 57.2738 12.9009C57.2105 12.1538 57.0992 11.4116 56.9405 10.6789C57.3142 11.5177 57.5037 12.427 57.496 13.3453ZM53.052 16.5006C53.2988 15.7056 53.4991 14.8969 53.6519 14.0786C53.6519 13.8119 53.7852 13.5675 53.8519 13.3009C53.8519 16.6562 51.6298 22.9001 49.4078 19.967C48.0275 17.8543 47.4738 15.3071 47.8524 12.812C48.1413 10.8566 49.6078 8.9679 52.1853 10.2345C52.3894 10.3418 52.5829 10.4683 52.7631 10.6122C52.0601 12.352 51.5461 14.1622 51.2299 16.0118C51.0965 17.2783 52.8964 17.6561 53.2519 16.5006H53.052ZM53.8741 21.7446C53.613 21.9344 53.3293 22.0912 53.0297 22.2113C53.4629 21.9079 53.8328 21.523 54.1186 21.078C54.2519 21.3002 54.163 21.5224 54.0741 21.7446H53.8741ZM52.5187 6.61254C52.8127 6.99077 53.0871 7.38385 53.3408 7.79022C53.5568 8.12881 53.7427 8.48571 53.8963 8.8568C53.6741 8.67903 53.4297 8.47905 53.163 8.30129C52.4656 7.6888 51.5692 7.35104 50.6411 7.35104C49.7129 7.35104 48.8164 7.6888 48.119 8.30129C48.5309 7.49114 49.234 6.86679 50.0872 6.55355C50.9403 6.24032 51.8804 6.26139 52.7187 6.61254H52.5187ZM46.6081 24.9666C45.5901 24.5874 44.6435 24.039 43.8083 23.3445C41.999 20.9782 41.0718 18.055 41.1863 15.0785C41.1369 11.7885 41.9002 8.53707 43.4083 5.61262C43.8945 5.77418 44.3576 5.99826 44.786 6.27923C45.1859 6.5681 45.697 5.85705 45.2971 5.56818C44.8494 5.25082 44.3733 4.97559 43.8749 4.74603C43.9349 4.66215 43.987 4.57288 44.0305 4.47938C44.7846 3.43536 45.8505 2.6574 47.0747 2.25734C48.4968 1.70183 49.63 3.14616 50.3411 4.07941C48.987 4.31089 47.7376 4.95502 46.7636 5.92371C43.275 9.34565 43.5416 16.0562 45.3637 20.167C45.8568 21.3975 46.6839 22.4657 47.7519 23.2509C48.8199 24.0362 50.0861 24.5073 51.4077 24.6111C50.7188 25.0171 49.9462 25.2602 49.149 25.3218C48.3518 25.3834 47.5511 25.2619 46.808 24.9666H46.6081Z" fill="#C2D4C9"/>
<path d="M42.2725 94.005C41.8235 92.577 41.1155 91.2438 40.1838 90.072L39.9172 89.6721C38.9172 88.3388 36.473 86.5168 34.6954 87.2056L34.2732 87.3834C32.7185 87.9652 31.3988 89.0429 30.5179 90.4498C30.2477 90.8334 30.0028 91.2342 29.7847 91.6497L29.5847 92.0052C28.2659 93.1269 27.2176 94.5322 26.5183 96.116C25.2693 98.4814 24.7765 101.173 25.1063 103.828C25.4361 106.482 26.5727 108.971 28.3626 110.959C31.8956 114.359 36.7175 113.003 39.1839 109.226C39.6824 108.465 40.1136 107.662 40.4727 106.826C42.6042 102.911 43.2437 98.3558 42.2725 94.005ZM26.7183 103.626C26.6131 102.133 26.7481 100.633 27.1182 99.1824C26.8845 100.414 26.7508 101.662 26.7183 102.915V103.626ZM34.4954 109.715C31.7845 110.715 30.0513 107.959 29.2958 105.982C28.8093 104.746 28.5896 103.42 28.6514 102.093C29.2283 104.156 30.5717 105.921 32.4067 107.026C33.2241 107.629 34.2131 107.954 35.2287 107.954C36.2443 107.954 37.2332 107.629 38.0507 107.026C37.18 108.295 35.9145 109.24 34.451 109.715H34.4954ZM40.3394 99.6046C40.2635 99.1173 40.0924 98.6496 39.8359 98.2284C39.5793 97.8072 39.2423 97.4407 38.8441 97.1498C38.4458 96.8588 37.9941 96.6492 37.5149 96.5328C37.0356 96.4164 36.5382 96.3956 36.0508 96.4715C33.5177 97.1826 34.0732 101.627 33.8288 103.426C33.6733 104.293 35.0065 104.893 35.3398 103.982C35.6219 103.385 35.8093 102.748 35.8953 102.093C35.8953 101.538 36.1619 96.8715 37.7618 98.9602C39.3617 101.049 38.4284 106.115 34.962 105.76C31.4956 105.404 29.9625 101.316 30.2291 98.4047C30.3982 96.4066 30.9093 94.4524 31.7401 92.6274C31.8794 92.3659 32.0352 92.1135 32.2067 91.8719C33.9843 91.4941 35.7398 93.0496 36.9619 94.2273C37.0354 94.2726 37.1223 94.2914 37.208 94.2804C37.2937 94.2695 37.3731 94.2295 37.4328 94.1671C37.4926 94.1047 37.5292 94.0237 37.5365 93.9376C37.5438 93.8515 37.5213 93.7655 37.4729 93.694C36.3454 92.2776 34.7841 91.2706 33.0288 90.8275C33.3412 90.3936 33.7388 90.028 34.1972 89.7529C34.6557 89.4778 35.1654 89.2991 35.6953 89.2277C36.5192 89.4614 37.284 89.8675 37.939 90.4191C38.5941 90.9708 39.1245 91.6553 39.495 92.4274C39.9039 93.4994 40.1728 94.6196 40.2949 95.7605C40.4173 97.0389 40.4173 98.3261 40.2949 99.6046H40.3394Z" fill="#C2D4C9"/>
<path d="M10.0779 91.3166C10.6645 90.9089 11.1632 90.3876 11.5444 89.7834C12.4076 88.4858 12.9329 86.9931 13.0726 85.4409C13.2123 83.8887 12.9619 82.3262 12.3443 80.8953C11.8559 79.8765 10.9979 79.0819 9.94456 78.6732C9.49816 77.9362 8.89768 77.3045 8.18431 76.8212C7.47095 76.338 6.66152 76.0147 5.81153 75.8735C6.43 75.5386 7.11075 75.3344 7.81142 75.2735C7.9175 75.2735 8.01919 75.2314 8.09419 75.1564C8.1692 75.0813 8.21137 74.9796 8.21137 74.8735C8.21137 74.7675 8.1692 74.6657 8.09419 74.5907C8.01919 74.5157 7.9175 74.4736 7.81142 74.4736C2.27854 74.4736 0.38979 81.1397 0.0120431 85.5838C-0.059649 86.7629 0.189737 87.9394 0.733623 88.988C1.27751 90.0367 2.0955 90.9182 3.10064 91.5388C4.09991 92.3379 5.35138 92.7545 6.63022 92.7138C7.90906 92.6731 9.13148 92.1777 10.0779 91.3166ZM7.61138 78.4732C5.14491 79.4287 4.27834 82.9173 4.43388 85.2505C4.4735 85.7194 4.59378 86.1779 4.78941 86.6059C4.40268 85.8606 4.09006 85.0792 3.85613 84.2728C3.10063 81.8063 4.16722 75.4957 7.61138 78.4732ZM4.98939 90.7167C3.65339 90.0748 2.59156 88.9755 1.9964 87.618C1.40124 86.2606 1.31215 84.7348 1.74523 83.3173C2.05632 86.4504 3.61174 89.9834 6.18931 91.1389C5.77326 91.0489 5.37012 90.907 4.98939 90.7167ZM4.98939 87.1392C5.33382 87.7034 5.79981 88.1837 6.35334 88.545C6.90688 88.9063 7.53402 89.1396 8.18913 89.2279C10.6112 89.5168 10.4112 86.4504 10.2334 85.006C10.0557 83.5617 8.1891 83.8284 8.3002 85.006C8.41131 86.1837 8.50024 87.6947 6.96703 86.4726C4.92276 84.8727 7.07814 80.0731 9.18907 80.362C9.70777 81.2868 10.1107 82.2719 10.3889 83.2951C10.8117 84.9754 10.703 86.7454 10.0779 88.3613C9.8393 88.704 9.53767 88.9981 9.18907 89.2279C7.4781 90.4722 5.98931 88.8946 4.98939 87.1392Z" fill="#C2D4C9"/>
<path d="M91.7144 108.648H91.9366C94.1981 108.36 96.2936 107.308 97.8772 105.668C99.4608 104.028 100.438 101.897 100.647 99.6268C100.74 98.4249 100.485 97.2217 99.9137 96.1604C100.136 94.6874 100.136 93.1894 99.9137 91.7163C99.2026 87.2722 93.4253 83.6948 89.2701 86.4056L88.448 86.9834C88.4578 86.8765 88.4352 86.769 88.383 86.6752C88.3308 86.5814 88.2515 86.5055 88.1554 86.4574C88.0594 86.4094 87.9511 86.3915 87.8447 86.4061C87.7383 86.4206 87.6388 86.4669 87.5592 86.539C82.8262 90.9831 79.782 96.8492 82.4485 103.36C83.0962 105.21 84.3905 106.764 86.0931 107.736C87.7956 108.707 89.7918 109.032 91.7144 108.648ZM92.581 103.671C90.0256 104.004 91.27 100.271 91.9366 98.5602C92.2774 98.9963 92.7686 99.2894 93.3142 99.3824C93.5735 99.4413 93.8456 99.3948 94.0707 99.2531C94.2957 99.1114 94.4552 98.8862 94.5141 98.6269C94.5731 98.3676 94.5266 98.0955 94.3849 97.8704C94.2432 97.6454 94.018 97.4859 93.7587 97.427C93.4476 97.427 93.4253 96.6492 93.4475 96.0937C93.7492 95.8278 94.1017 95.6257 94.4836 95.4997C94.8655 95.3737 95.2689 95.3263 95.6696 95.3605C95.6993 95.4884 95.7365 95.6145 95.7807 95.7382C96.0046 96.3426 96.1175 96.9824 96.114 97.6269C96.3807 100.116 95.4474 103.315 92.581 103.671ZM85.3815 93.8273C87.248 89.7831 91.8921 85.3835 96.2473 88.9388C96.9574 89.5768 97.5036 90.3761 97.84 91.2694C98.1765 92.1627 98.2932 93.1238 98.1805 94.0717C97.7901 93.77 97.3649 93.5163 96.9139 93.3162C96.5091 92.8052 95.9598 92.428 95.3375 92.2338C94.7152 92.0396 94.0489 92.0374 93.4254 92.2274C92.7786 92.492 92.2235 92.9403 91.8286 93.5168C91.4337 94.0933 91.2164 94.7729 91.2033 95.4716C88.9813 98.4047 87.4481 103.426 90.9811 105.537C91.6264 105.887 92.3766 105.989 93.092 105.826L92.4698 106.315C90.9772 106.611 89.4302 106.457 88.0258 105.871C83.0928 103.826 83.5817 97.7825 85.3815 93.8273Z" fill="#C2D4C9"/>
<path d="M58.3181 81.9175C58.6653 82.1016 59.03 82.2505 59.4068 82.3619C65.1397 84.0507 67.4951 77.4734 67.8506 72.9405C67.8396 72.7629 67.8396 72.5848 67.8506 72.4072C68.1042 70.7727 68.1042 69.1088 67.8506 67.4743C67.7701 66.0295 67.4024 64.6153 66.7691 63.3143C66.1358 62.0133 65.2495 60.8516 64.162 59.8971C63.3981 59.0668 62.3727 58.5234 61.2567 58.3577C60.1406 58.1919 59.0015 58.4137 58.0292 58.9861C57.6792 59.2135 57.3518 59.4739 57.0515 59.7638C53.0296 61.5636 52.6074 68.9408 53.0296 72.7183C53.3407 76.0291 55.0072 80.7176 58.3181 81.9175ZM60.0291 77.2068C60.9921 77.5492 62.0436 77.5492 63.0066 77.2068C62.8488 77.4593 62.6293 77.6676 62.3689 77.812C62.1085 77.9564 61.8156 78.0321 61.5178 78.0321C61.22 78.0321 60.9271 77.9564 60.6667 77.812C60.4063 77.6676 60.1868 77.4593 60.0291 77.2068ZM63.7176 73.0738C63.5923 73.3368 63.4955 73.6124 63.4288 73.8959C62.8955 75.2514 61.8289 75.5847 60.1846 74.9403C59.5545 74.2991 59.1963 73.4394 59.1847 72.5405C59.2264 71.2905 59.4586 70.0541 59.8735 68.8741C60.6734 65.6077 63.3621 69.3852 63.7398 69.9629C64.2101 70.7381 64.4419 71.6345 64.4064 72.5405C64.2547 72.5607 64.1111 72.6206 63.9901 72.7143C63.8691 72.808 63.7751 72.932 63.7176 73.0738ZM63.4954 63.319C64.2882 64.5374 64.9228 65.8515 65.3841 67.2298C65.6831 68.113 65.8625 69.0322 65.9175 69.9629C65.6559 69.0749 65.1989 68.2568 64.5798 67.5685C63.9608 66.8802 63.1954 66.3393 62.3399 65.9855C61.7247 65.7885 61.065 65.7784 60.444 65.9564C59.8231 66.1344 59.2688 66.4925 58.8513 66.9854C59.0955 66.2249 59.3926 65.4825 59.7402 64.7634C60.3846 63.319 61.94 61.097 63.4954 63.319ZM56.9626 63.319C57.3328 62.3453 57.8915 61.4542 58.6069 60.697C58.7923 60.4639 59.0226 60.2704 59.2842 60.128C59.5458 59.9857 59.8334 59.8974 60.1298 59.8684C60.4262 59.8393 60.7254 59.8702 61.0097 59.9591C61.2939 60.048 61.5574 60.1932 61.7844 60.386H61.5178C59.0513 60.8304 56.9182 64.6745 56.5626 66.8743C55.7164 70.106 55.9586 73.5265 57.2515 76.6068C57.6495 77.5465 58.3291 78.3395 59.1966 78.8768C60.0642 79.414 61.077 79.669 62.0956 79.6066C61.5893 80.0227 60.9702 80.278 60.3179 80.3399C59.8616 80.2681 59.4193 80.1257 59.0069 79.9177C58.1716 79.3742 57.4647 78.6554 56.9352 77.8112C56.4057 76.967 56.0662 76.0177 55.9405 75.0292C55.207 71.1056 55.5605 67.0562 56.9626 63.319Z" fill="#C2D4C9"/>
<path d="M77.8042 37.9655C77.0999 37.3756 76.2542 36.9794 75.3503 36.8157C74.4463 36.6521 73.5153 36.7267 72.649 37.0323C72.6933 36.8839 72.6879 36.7251 72.6337 36.58C72.5795 36.435 72.4794 36.3116 72.3486 36.2286C72.2178 36.1456 72.0636 36.1076 71.9093 36.1203C71.7549 36.133 71.6089 36.1958 71.4935 36.299C70.4538 37.1969 69.6728 38.3562 69.2314 39.6571C68.7899 40.958 68.7041 42.3532 68.9827 43.6984C69.6048 45.9204 70.5158 49.2091 73.0267 50.0312C74.1935 50.364 75.4436 50.2361 76.5187 49.6737C77.5939 49.1113 78.4119 48.1575 78.804 47.0092C78.9812 46.9915 79.1496 46.9235 79.2894 46.8132C79.4291 46.7029 79.5344 46.5549 79.5928 46.3867C79.6512 46.2186 79.6602 46.0372 79.6189 45.864C79.5776 45.6908 79.4876 45.5331 79.3595 45.4094C79.6187 44.6962 79.7612 43.9459 79.7817 43.1873C79.902 42.2217 79.7848 41.2413 79.4402 40.3313C79.0955 39.4213 78.5339 38.6092 77.8042 37.9655ZM71.5824 44.3428C71.3256 43.9547 71.1478 43.5198 71.0591 43.063C70.9704 42.6062 70.9725 42.1364 71.0653 41.6804C71.1582 41.2244 71.34 40.7911 71.6002 40.4054C71.8605 40.0196 72.1943 39.6889 72.5823 39.4321C72.9704 39.1753 73.4053 38.9975 73.8622 38.9088C74.319 38.82 74.7888 38.8222 75.2448 38.915C75.7008 39.0079 76.1341 39.1896 76.5198 39.4499C76.9056 39.7102 77.2362 40.0439 77.493 40.432C77.2602 40.3458 77.0105 40.315 76.7637 40.342C76.5168 40.369 76.2796 40.4531 76.0709 40.5876C75.6194 40.9652 75.2475 41.4288 74.9767 41.9514C74.7059 42.474 74.5415 43.0451 74.4933 43.6317C74.3974 43.9425 74.3639 44.2691 74.3947 44.5929C74.4256 44.9166 74.5201 45.2311 74.6729 45.5181C74.8257 45.8052 75.0338 46.0592 75.2852 46.2655C75.5365 46.4719 75.8263 46.6264 76.1376 46.7204C74.4711 47.5203 72.3823 45.7205 71.5824 44.3428ZM77.2931 45.0316C76.4709 44.8983 76.182 44.4983 76.6709 42.9429C76.9598 42.0097 77.6486 42.6985 78.0708 42.9429C78.0263 42.8096 77.493 44.2095 77.2931 45.0316Z" fill="#C2D4C9"/>
<path d="M96.892 72.7403C102.18 74.7846 107.38 69.5628 110.046 65.6964C112.713 61.8301 115.046 54.7862 109.846 51.5643C106.758 49.6311 103.647 50.9865 101.114 53.3419C96.4253 52.2975 94.3366 57.2971 93.0701 61.4523C91.8035 65.6075 92.4257 70.9849 96.892 72.7403ZM109.113 61.8079C108.513 65.9409 101.847 69.5183 98.6918 66.0742C101.181 67.7185 103.914 66.0742 105.913 64.2521C107.268 63.0983 108.219 61.5409 108.624 59.808C109.022 60.3945 109.195 61.1042 109.113 61.8079ZM105.136 61.8079C105.247 60.6642 105.67 59.5729 106.358 58.6526L106.647 59.0525C106.516 60.0613 106.082 61.0067 105.402 61.7634C104.58 62.8078 98.8918 67.0074 99.6029 62.8078C99.8287 61.7853 100.287 60.8286 100.942 60.0117C101.597 59.1948 102.431 58.5397 103.38 58.0971C103.758 57.9474 104.154 57.8502 104.558 57.8082C103.807 58.9393 103.419 60.2727 103.447 61.6301C103.447 62.63 104.98 62.8078 105.136 61.8523V61.8079ZM104.402 53.3863C105.019 53.0149 105.717 52.799 106.436 52.7572C107.155 52.7154 107.873 52.8489 108.529 53.1462C109.185 53.4435 109.759 53.8958 110.201 54.464C110.644 55.0323 110.941 55.6995 111.069 56.4083C111.274 57.4555 111.189 58.5387 110.824 59.5414C109.002 54.6085 101.936 55.0973 99.3362 58.8748C98.583 59.9258 97.9983 61.0878 97.603 62.3189C98.6707 58.6063 101.099 55.4326 104.402 53.4308V53.3863ZM94.5144 62.9855C95.0255 59.6969 96.5142 54.9195 99.9362 54.5196C98.4967 56.1686 97.2791 57.9988 96.3142 59.9636C95.8384 61.0218 95.6205 62.1779 95.6784 63.3367C95.7364 64.4956 96.0685 65.6242 96.6475 66.6297C98.003 69.1184 101.447 69.6072 103.958 69.2739C102.594 70.2393 101.015 70.8571 99.3584 71.0738C94.781 71.6515 93.9811 66.4519 94.5144 63.03V62.9855Z" fill="#C2D4C9"/>
<path d="M20.4333 41.9653C20.8555 41.5653 20.2111 40.7654 19.7445 41.1653C18.9001 41.8542 16.9447 42.5874 16.4558 43.5207C15.8308 44.6669 15.3031 45.8636 14.8782 47.0982C14.3808 48.4981 14.2421 50.0003 14.475 51.4676C14.7079 52.9349 15.3049 54.3204 16.2114 55.4975C16.5598 55.9926 16.9706 56.4407 17.4335 56.8307C17.9937 58.5641 19.1107 60.0639 20.611 61.097C20.7954 61.2284 20.9884 61.3472 21.1888 61.4525C22.2405 62.4112 23.5713 63.0082 24.9867 63.1562C26.4021 63.3041 27.8276 62.9952 29.0548 62.2747C30.2212 61.7009 31.2475 60.8782 32.0614 59.8646C32.8754 58.8511 33.4571 57.6713 33.7655 56.4085C34.546 53.5746 34.5074 50.5776 33.6544 47.7648C33.5965 46.2496 33.312 44.7516 32.8101 43.3207C31.3435 39.0988 27.6104 34.277 23.233 38.0545C21.3584 40.0426 20.0537 42.4987 19.4556 45.165C17.9571 47.4885 17.0845 50.1598 16.9224 52.9199C16.4511 51.9362 16.1649 50.8742 16.0781 49.7868C16.1659 48.0451 16.6202 46.3415 17.4113 44.7872C17.8335 43.7429 19.7223 42.7208 20.4333 41.9653ZM28.2771 55.2975C26.7201 56.3814 24.8354 56.8918 22.9442 56.7418C22.8225 55.2977 23.2161 53.8571 24.0552 52.6755C25.7218 50.7201 27.766 53.6754 28.2993 55.2753L28.2771 55.2975ZM30.7435 57.2529C30.7663 56.8755 30.7663 56.4971 30.7435 56.1196C31.0492 55.8154 31.3314 55.4886 31.5879 55.1419C31.4166 55.8719 31.1631 56.58 30.8324 57.2529H30.7435ZM24.8551 39.4766C26.4106 37.7656 27.966 39.1655 29.0103 40.5654C29.4625 41.1794 29.8568 41.834 30.188 42.5208C29.3934 41.6178 28.3321 40.9911 27.1576 40.7315C25.9831 40.4718 24.7565 40.5926 23.6552 41.0764C24.0121 40.5261 24.4134 40.0059 24.8551 39.521V39.4766ZM21.2554 46.7426C21.9594 45.6777 22.7792 44.694 23.6997 43.8095C27.255 40.2321 30.588 46.3871 31.6102 49.098C31.5565 50.1758 31.2922 51.2326 30.8324 52.2089C30.7792 52.054 30.6851 51.9164 30.5602 51.8105C30.4354 51.7046 30.2842 51.6343 30.1228 51.607C29.9613 51.5797 29.7955 51.5964 29.6427 51.6554C29.49 51.7144 29.356 51.8135 29.2548 51.9422C28.6889 51.1272 27.9059 50.4871 26.9948 50.0944C26.0836 49.7016 25.0807 49.572 24.0997 49.7202C22.8795 50.283 21.8659 51.2132 21.2005 52.3806C20.5352 53.548 20.2513 54.8941 20.3888 56.2307H20.2111C19.8076 53.0446 20.1655 49.8081 21.2554 46.7871V46.7426Z" fill="#C2D4C9"/>
</svg>
