<svg width="62" height="121" viewBox="0 0 62 121" fill="none" xmlns="http://www.w3.org/2000/svg">
<path d="M24.9235 80.0901C25.5517 79.1335 25.3661 77.82 25.7802 76.7778C25.9651 76.3835 26.0142 75.9392 25.9198 75.5141C25.8254 75.089 25.5928 74.7072 25.2584 74.4283C24.924 74.1493 24.5067 73.989 24.0716 73.9724C23.6364 73.9558 23.2081 74.0838 22.8534 74.3364C22.6203 74.1056 22.3559 73.9085 22.0681 73.7511C21.6016 73.5038 21.0827 73.3716 20.5548 73.3656C20.59 72.8762 20.5132 72.3852 20.3301 71.93C20.147 71.4748 19.8625 71.0674 19.4983 70.7386C18.812 70.1122 17.9078 69.7794 16.9792 69.8114C16.0505 69.8434 15.1714 70.2378 14.5299 70.9099C13.8065 71.7095 13.1212 72.5375 12.474 73.3941C12.1763 72.9936 11.8088 72.6502 11.3889 72.3805C11.0062 72.1814 10.5876 72.0603 10.1577 72.0244C9.72769 71.9885 9.29491 72.0384 8.88441 72.1712C8.47391 72.3041 8.09393 72.5172 7.76653 72.7982C7.43914 73.0792 7.17088 73.4226 6.97735 73.8082C5.78903 76.7859 4.90413 79.8758 4.33609 83.0311H23.039L23.453 82.4172C23.9527 81.5892 24.4381 80.8182 24.9235 80.0901Z" fill="#C2D4C9"/>
<path d="M29.4495 30.4774C29.4109 31.146 29.6086 31.8068 30.0079 32.3444C30.4071 32.882 30.9827 33.2622 31.6339 33.4185C31.6339 33.8468 31.7196 34.2751 31.7767 34.7034C31.8352 35.3785 32.0817 36.0238 32.4883 36.5659C32.8949 37.108 33.4453 37.5253 34.077 37.7706C34.7087 38.0159 35.3965 38.0792 36.0624 37.9535C36.7283 37.8277 37.3456 37.5179 37.8444 37.0591C38.327 37.2528 38.845 37.3425 39.3646 37.3224C39.8842 37.3023 40.3938 37.1728 40.8599 36.9424C41.3261 36.712 41.7384 36.3859 42.07 35.9853C42.4016 35.5848 42.645 35.1187 42.7842 34.6177C43.0555 33.8182 43.2839 33.0045 43.5266 32.1907C45.5248 29.2726 46.7795 25.9103 47.1815 22.3966C47.224 22.0041 47.1701 21.6071 47.0245 21.2402C48.1096 18.2563 49.5944 14.4015 47.2815 12.0458C46.5746 11.402 45.6435 11.0609 44.688 11.0956C43.7325 11.1303 42.8287 11.5381 42.1703 12.2314L42.0704 12.3456C41.5554 12.1391 41.0006 12.0511 40.447 12.0882C39.8934 12.1252 39.3552 12.2864 38.8723 12.5598C38.7328 12.6352 38.5992 12.7211 38.4726 12.8167C38.2282 11.981 37.7291 11.2423 37.0449 10.7037C37.0449 10.2183 37.0449 9.74717 37.1163 9.27602C37.3925 6.94538 37.3107 4.58619 36.8736 2.28029C36.8736 0.281506 33.29 -1.14618 32.3192 1.26663C31.6383 3.45506 31.2682 5.72825 31.2198 8.01964C31.0057 10.1041 30.763 12.1743 30.5631 14.2444C29.1354 19.4698 29.578 27.8076 29.4352 30.2775L29.4495 30.4774Z" fill="#C2D4C9"/>
<path d="M3.17912 43.7122C3.18812 44.355 3.37411 44.9829 3.71664 45.527C4.05918 46.071 4.54499 46.5101 5.12078 46.796C5.92823 47.2057 6.85481 47.3158 7.73576 47.1066C8.61672 46.8975 9.39495 46.3828 9.93213 45.6539V45.5396C10.0495 45.3765 10.1454 45.1989 10.2177 45.0114C11.4978 42.6365 12.4078 40.08 12.916 37.4303L13.1302 36.8021C14.0297 34.1609 15.2289 31.6338 16.057 28.964C16.8851 26.2942 14.6293 24.6809 12.4164 24.6809C11.9998 24.1775 11.4179 23.8384 10.7745 23.7243C10.7745 23.1104 10.8602 22.4965 10.8887 21.8969C11.0315 18.8702 6.9197 17.6138 5.04941 19.7125C4.43892 20.4185 3.95583 21.2253 3.62171 22.0968C3.17197 22.1509 2.74894 22.3393 2.40771 22.6372C2.06649 22.9351 1.82289 23.3288 1.70859 23.7672C0.943755 26.3189 0.464914 28.9478 0.280887 31.6053C0.195225 33.6612 -0.361612 36.331 0.380793 38.3012C0.636485 39.032 1.14215 39.6489 1.8085 40.043C1.80267 40.0904 1.80267 40.1383 1.8085 40.1858C1.76609 40.8379 1.86684 41.4915 2.1036 42.1007C2.34035 42.7098 2.70743 43.2598 3.17912 43.7122Z" fill="#C2D4C9"/>
<path d="M57.9339 45.8967C55.6925 46.0966 54.6217 47.5243 53.4652 49.2233C53.2225 49.5802 52.0375 51.322 53.1226 49.8515C52.8085 50.2798 52.5229 50.7224 52.2374 51.1649C51.6661 50.8827 51.0345 50.7442 50.3976 50.7617C49.7606 50.7791 49.1375 50.9518 48.5825 51.2649C48.0215 51.6121 47.536 52.0685 47.1548 52.6069C46.6858 52.3606 46.164 52.2318 45.6343 52.2318C45.1045 52.2318 44.5827 52.3606 44.1138 52.6069C41.4868 53.7919 41.5439 58.8746 41.3583 61.1732C41.0728 64.6996 40.9871 69.1397 43.5712 71.8809C44.0476 72.3868 44.6746 72.7253 45.3588 72.8462C46.0431 72.9671 46.748 72.8639 47.3689 72.5519C49.125 74.4365 52.8513 74.7934 53.9364 71.9238C54.6788 69.9393 55.464 67.9547 56.2635 65.9845C56.6775 65.4134 57.063 64.8281 57.4485 64.2142C58.7763 62.1154 60.1183 60.0881 61.2319 57.8752C61.5674 57.2895 61.7306 56.6209 61.7028 55.9465C61.6751 55.2721 61.4574 54.6193 61.0749 54.0632C61.4561 52.9432 61.738 51.7918 61.9172 50.6224C62.0388 50.0395 62.0263 49.4366 61.8805 48.8593C61.7348 48.2819 61.4596 47.7453 61.0758 47.29C60.6921 46.8348 60.2098 46.4727 59.6654 46.2313C59.1211 45.99 58.529 45.8755 57.9339 45.8967Z" fill="#C2D4C9"/>
<path d="M4.26561 83.2881C3.95849 84.9741 3.74404 86.6756 3.62317 88.385C3.46612 89.8984 3.50892 91.5403 3.23766 93.0251C3.15732 93.5556 3.23446 94.098 3.45947 94.5851C3.68449 95.0722 4.04752 95.4825 4.50354 95.7653C4.95956 96.048 5.48853 96.1907 6.02488 96.1756C6.56122 96.1606 7.08132 95.9885 7.52077 95.6806C8.01173 96.0195 8.5845 96.2207 9.17952 96.2634C9.77455 96.306 10.3702 96.1886 10.9045 95.9233C11.3807 96.0752 11.8852 96.1168 12.3798 96.0451C12.8745 95.9734 13.3464 95.7901 13.7599 95.5093C16.5439 93.6675 18.2 90.1411 19.9846 87.4285C20.984 85.9151 22.0262 84.4446 23.0542 82.9455H4.35126C4.30843 83.0597 4.29416 83.1739 4.26561 83.2881Z" fill="#C2D4C9"/>
<path d="M34.2325 114.269C34.2373 115.176 34.5225 116.06 35.049 116.799C35.5755 117.537 36.3176 118.095 37.1736 118.395C38.4871 120.223 41.5709 120.965 43.0272 118.909L43.1271 118.752C43.6358 118.69 44.1255 118.521 44.5637 118.255C45.0019 117.989 45.3784 117.633 45.6684 117.21C47.0961 115.126 48.1954 112.827 49.666 110.757C51.4396 108.614 52.9495 106.265 54.1632 103.761C54.5001 102.96 54.5666 102.071 54.3528 101.229C54.139 100.386 53.6564 99.6364 52.9782 99.0928C53.426 98.1581 53.6461 97.1307 53.6207 96.0946C53.4494 93.9673 51.165 91.7115 48.8807 92.6967C48.7147 92.7689 48.5527 92.85 48.3953 92.9394C48.3953 92.5825 48.3953 92.2398 48.3953 91.8829C48.3585 91.1746 48.1157 90.4925 47.6966 89.9204C47.2775 89.3482 46.7004 88.911 46.0362 88.6623C45.372 88.4136 44.6496 88.3643 43.9578 88.5205C43.266 88.6767 42.6349 89.0315 42.1419 89.5414C41.747 89.9911 41.3844 90.4682 41.0569 90.9691C40.869 90.5787 40.6182 90.2218 40.3145 89.9127C38.3443 87.8853 35.3604 90.4695 36.3598 92.7681C35.96 91.8972 36.3598 91.8258 36.0171 92.7681C35.8701 93.3529 35.7792 93.9505 35.7459 94.5527L35.5745 95.9804C35.1366 97.2913 34.8165 98.6387 34.618 100.007C34.2564 102.751 34.1512 105.523 34.3039 108.287C34.3082 108.781 34.4203 109.269 34.6323 109.715C34.3515 111.216 34.2176 112.742 34.2325 114.269Z" fill="#C2D4C9"/>
</svg>
