<svg width="81" height="110" viewBox="0 0 81 110" fill="none" xmlns="http://www.w3.org/2000/svg">
<path d="M36.6461 106.196C37.0703 105.093 37.2721 103.916 37.2401 102.735C37.5035 101.432 37.6543 100.11 37.6907 98.7814C38.0934 96.0059 37.9333 93.1776 37.2196 90.4653C36.8204 88.9972 35.9244 87.713 34.6844 86.8315C33.4444 85.95 31.937 85.5259 30.4193 85.6313L30.6445 85.447C30.9928 85.1602 30.6445 84.5457 30.2554 84.8325C29.7411 85.1995 29.2487 85.5962 28.7806 86.0205C28.2059 86.2481 27.6676 86.5586 27.1829 86.9422C21.038 91.8582 20.2392 105.889 28.2481 109.474C29.3921 110.012 30.6861 110.142 31.9145 109.842C34.1266 110.15 35.7858 108.265 36.6461 106.196ZM27.3673 92.616C27.8179 90.9774 28.883 88.6628 30.8289 88.5194C32.447 88.3351 33.7989 90.8135 34.4749 91.9401C35.2218 93.3524 35.6484 94.9119 35.7244 96.5078C34.905 95.115 32.7339 92.5751 31.4639 94.8896C30.9213 95.9729 30.7438 97.2027 30.9579 98.3952C31.172 99.5877 31.7663 100.679 32.6519 101.506C32.804 101.647 33.006 101.722 33.2134 101.714C33.4209 101.707 33.6168 101.617 33.758 101.465C33.8992 101.313 33.9743 101.111 33.9666 100.903C33.9589 100.696 33.8691 100.5 33.717 100.359C33.3 99.7986 33.0046 99.1578 32.8494 98.4771C32.6942 97.7964 32.6827 97.0908 32.8157 96.4054C32.9465 96.3691 33.0836 96.3609 33.2178 96.3812C33.352 96.4016 33.4804 96.4502 33.5945 96.5237C33.7086 96.5972 33.8059 96.694 33.88 96.8077C33.954 96.9215 34.0032 97.0496 34.0243 97.1837C34.4066 97.907 34.689 98.6787 34.864 99.4778C34.999 99.9679 35.0949 100.468 35.1508 100.973C34.9267 101.573 34.5526 102.106 34.0641 102.52C33.5756 102.935 32.9891 103.217 32.3605 103.34C31.732 103.463 31.0823 103.423 30.4735 103.224C29.8647 103.025 29.3171 102.673 28.883 102.202C28.077 101.565 27.3845 100.796 26.8347 99.9285C26.5029 97.4804 26.6843 94.9901 27.3673 92.616ZM24.2744 96.9175C24.3611 97.404 24.4843 97.8833 24.643 98.3513C24.6819 98.4775 24.7298 98.6007 24.7864 98.72C24.8036 101.633 25.6644 104.479 27.2649 106.913C24.7659 104.619 24.09 100.174 24.2744 96.9175ZM31.7711 108.04C29.5385 107.507 28.2685 105.09 27.5311 102.98C28.2997 103.889 29.3299 104.538 30.4811 104.838C31.6323 105.139 32.8483 105.077 33.9628 104.66C34.317 104.518 34.6483 104.325 34.946 104.087C34.7688 104.95 34.3884 105.759 33.8363 106.447C33.2842 107.134 32.5763 107.68 31.7711 108.04Z" fill="#C2D5C9"/>
<path d="M20.2791 72.3586C22.8804 70.5357 23.0238 64.739 22.5732 62.1171C22.313 60.7384 21.6584 59.4648 20.6888 58.4507C20.1381 57.5396 19.4852 56.6943 18.7429 55.9313C15.1788 52.1829 9.27974 55.9313 9.05443 60.3761C8.97204 61.8058 9.13127 63.2392 9.5255 64.6161C9.21174 65.8282 9.19116 67.0977 9.46542 68.3194C9.73969 69.5411 10.301 70.68 11.1027 71.6417C11.6875 72.4767 12.4321 73.1873 13.2936 73.7323C14.155 74.2773 15.1161 74.6458 16.121 74.8166C16.9746 74.8364 17.8166 74.6167 18.5516 74.1822C19.2865 73.7477 19.885 73.116 20.2791 72.3586ZM11.922 57.6723C12.4155 57.092 13.0569 56.656 13.7782 56.4108C14.4994 56.1656 15.2737 56.1202 16.0186 56.2795C14.5283 56.9176 13.3001 58.0447 12.5365 59.4748C12.2462 59.912 12.0187 60.3878 11.8606 60.8881C11.4648 61.2153 11.1074 61.5864 10.7954 61.9942C10.6858 61.2351 10.729 60.4617 10.9225 59.7195C11.1159 58.9773 11.4558 58.2813 11.922 57.6723ZM11.3895 62.834C11.3574 63.2841 11.3574 63.7359 11.3895 64.1859C11.3895 63.9401 11.2256 63.6943 11.1642 63.4485C11.1027 63.2027 11.2666 63.0389 11.3895 62.834ZM11.1437 69.2043C10.7072 68.492 10.4538 67.6827 10.4063 66.8487C10.8377 67.7057 11.367 68.5099 11.9835 69.2452C12.1887 69.9041 12.4562 70.542 12.7823 71.1501C12.9325 71.3686 13.0759 71.5735 13.2125 71.7646C12.4224 70.9975 11.7277 70.1379 11.1437 69.2043ZM14.7077 62.3629C13.7906 63.7196 13.4312 65.3774 13.7041 66.9921C13.8139 67.8413 14.085 68.6617 14.5029 69.4091C14.1652 69.1263 13.8565 68.8107 13.5812 68.4669C13.2565 67.1272 13.1459 65.7445 13.2534 64.3703C13.2127 62.5789 13.7754 60.8259 14.8511 59.3929C16.3259 57.5084 18.2718 58.4916 19.4803 59.905V60.0074C19.9185 60.8428 20.1963 61.7529 20.2996 62.6907C20.0141 62.2191 19.6184 61.824 19.1463 61.5395C18.6742 61.2549 18.1401 61.0894 17.5898 61.0571C17.0396 61.0249 16.4896 61.1269 15.9876 61.3544C15.4855 61.5818 15.0463 61.928 14.7077 62.3629ZM17.6778 70.8839C16.5137 69.4812 15.7307 67.8022 15.4041 66.0089C15.2812 64.104 17.2272 61.2773 18.9068 63.6534C19.4699 64.8222 19.6769 66.1308 19.5021 67.4164C19.3273 68.702 18.7783 69.9078 17.9236 70.8839H17.6778Z" fill="#C2D5C9"/>
<path d="M27.717 42.1868C28.3795 42.827 29.1776 43.31 30.0521 43.6001C33.2474 44.5628 34.9884 42.7194 35.8897 40.1795C36.6431 38.8836 37.2544 37.5101 37.7127 36.0829C39.4538 30.8802 39.1055 25.0015 34.374 21.5604C29.6424 18.1192 25.9759 25.5546 24.7265 29.2415C24.3811 30.3623 24.2152 31.5306 24.2348 32.7032C24.2348 33.0104 24.2348 33.3381 24.2348 33.6454C24.0706 35.2454 24.3024 36.8613 24.9096 38.3508C25.5168 39.8403 26.4809 41.1576 27.717 42.1868ZM34.968 36.6359C34.8873 36.9554 34.7704 37.2646 34.6198 37.5576C34.4974 37.8976 34.2476 38.1767 33.9233 38.336C33.936 38.2532 33.9317 38.1688 33.9105 38.0877C33.8894 38.0067 33.8519 37.9309 33.8004 37.8649C33.2817 37.3247 32.8853 36.6794 32.6379 35.9726C32.3905 35.2657 32.298 34.514 32.3666 33.7683C32.4523 33.0201 32.6672 32.2924 33.0016 31.6176C33.4727 30.6549 34.8246 33.461 35.0499 34.3418C35.0652 35.1074 35.0378 35.8733 34.968 36.6359ZM26.0169 30.9621C26.2919 30.0775 26.6484 29.2203 27.082 28.4017C28.1266 26.3534 29.7653 25.9233 32.0594 26.3534C32.1762 26.3806 32.299 26.3602 32.4008 26.2969C32.5026 26.2335 32.575 26.1322 32.6022 26.0154C32.6294 25.8987 32.609 25.7758 32.5456 25.6741C32.4823 25.5723 32.381 25.4998 32.2642 25.4726C30.9471 24.9585 29.4847 24.9585 28.1676 25.4726C29.5809 22.8713 31.7521 21.376 34.4354 23.6906C35.4246 24.6961 36.1698 25.9151 36.6137 27.2539C37.0576 28.5927 37.1883 30.0155 36.9958 31.4127C36.9956 32.1743 36.934 32.9347 36.8115 33.6863C36.6476 29.9379 33.4113 24.8786 30.6665 29.9789C28.9255 33.1743 29.3351 38.1721 32.7148 40.2204C33.0423 40.4279 33.4144 40.5543 33.8004 40.5891C33.3237 41.1881 32.6466 41.5947 31.8939 41.734C31.1411 41.8732 30.3633 41.7358 29.7038 41.347L29.4171 41.1217C27.6718 39.2184 26.5808 36.8068 26.3036 34.2394C25.9956 33.1761 25.8982 32.0628 26.0169 30.9621Z" fill="#C2D5C9"/>
<path d="M4.03717 4.27288C4.14786 4.24993 4.24729 4.18952 4.31865 4.10185C4.39001 4.01417 4.42891 3.90458 4.42891 3.79153C4.42891 3.67848 4.39001 3.56889 4.31865 3.48121C4.24729 3.39354 4.14786 3.33313 4.03717 3.31018C-1.06311 3.0439 -0.0594355 10.172 0.391191 13.5517C0.841818 16.9314 2.58288 22.2365 6.5361 23.2402C7.42479 23.4777 8.35549 23.5127 9.2595 23.3425C10.1635 23.1723 11.0177 22.8014 11.7592 22.257C13.2471 21.9586 14.6228 21.2529 15.7331 20.2186C16.8435 19.1842 17.6447 17.8618 18.0476 16.3988C18.3362 15.4463 18.4162 14.4427 18.2818 13.4565C18.1475 12.4703 17.8021 11.5247 17.2692 10.6841C17.3652 8.95882 17.081 7.23354 16.4369 5.63018C15.7927 4.02682 14.8043 2.58453 13.5413 1.40526C12.7821 0.778738 11.8834 0.343799 10.9209 0.137054C9.9585 -0.0696904 8.96047 -0.0421902 8.01088 0.21724C5.59388 0.975112 4.6312 4.08853 4.05767 6.23925C2.76724 11.0528 2.52144 18.652 7.6422 21.4172H7.76509C5.51196 21.0894 3.66846 18.6315 2.74673 15.8868C1.82499 13.142 0.104426 4.55964 4.03717 4.27288ZM11.2472 9.35267C10.223 9.49605 9.09649 11.0937 9.87484 12.0769C10.9351 13.1487 12.3022 13.8645 13.7871 14.1252C13.861 14.1547 13.94 14.1691 14.0195 14.1674C14.099 14.1658 14.1773 14.1483 14.2499 14.1158C14.3225 14.0833 14.3879 14.0366 14.4421 13.9784C14.4963 13.9202 14.5382 13.8517 14.5655 13.777C14.7086 14.3277 14.7086 14.9059 14.5655 15.4566C14.5655 15.7024 14.3811 15.9482 14.2787 16.194C14.1069 16.5093 13.9009 16.8047 13.6642 17.0748C11.4111 19.5327 7.88795 16.6651 7.72409 14.1252C7.51926 11.0118 9.7724 7.81644 13.1111 9.35267C13.9062 9.69478 14.6084 10.2214 15.1594 10.8889C14.6898 10.3347 14.091 9.90468 13.4159 9.63676C12.7407 9.36884 12.01 9.27127 11.2882 9.35267H11.2472ZM14.0124 12.589L12.9473 12.0359C12.4967 11.8311 10.4074 10.4178 12.5581 11.4215C13.1466 11.6791 13.6608 12.0806 14.0534 12.589H14.0124ZM5.69629 16.1735C4.98961 13.3633 4.98961 10.4218 5.69629 7.61161C6.18788 4.92834 7.21206 1.46671 10.6532 2.0812C11.6683 2.43104 12.5773 3.03417 13.2942 3.83349C14.011 4.63281 14.5121 5.60186 14.7498 6.64891C14.95 7.25156 15.1074 7.86758 15.2209 8.49238C13.8847 7.45805 12.2164 6.94808 10.5303 7.05857C6.86385 7.28389 4.7131 13.5722 6.33126 16.4398C6.84803 17.4804 7.65477 18.3493 8.65423 18.9417C9.65368 19.5341 10.8032 19.8247 11.9641 19.7785C11.683 20.0797 11.3745 20.354 11.0424 20.5979C9.80818 20.5026 8.63419 20.0254 7.68352 19.2326C6.73285 18.4397 6.0526 17.3706 5.73723 16.1735H5.69629Z" fill="#C2D5C9"/>
<path d="M73.373 26.8863C76.5069 25.432 78.3094 21.786 79.354 18.6931C80.6475 15.0309 80.7622 11.0556 79.6817 7.32502C79.2182 5.78457 78.3889 4.37908 77.2647 3.22842C75.8514 1.81509 72.697 -0.00790066 70.5873 0.770454C69.5779 1.15847 68.6681 1.76734 67.9245 2.55248C67.7984 2.23515 67.6105 1.946 67.3718 1.70179C67.1332 1.45757 66.8484 1.26315 66.534 1.12979C66.2197 0.996429 65.882 0.926775 65.5405 0.924865C65.199 0.922955 64.8606 0.988827 64.5448 1.11867C62.4965 1.67171 61.4519 5.48155 61.0832 7.14068C59.9156 12.6506 60.4072 19.9426 64.2171 24.3874C65.2257 25.7901 66.6856 26.8038 68.3524 27.2588C70.0191 27.7137 71.7916 27.5822 73.373 26.8863ZM67.9654 5.89121C70.7716 -0.253697 76.9165 4.08871 78.2069 8.71787C78.3697 9.35034 78.4861 9.99385 78.5552 10.6433C78.2331 9.89628 77.759 9.22455 77.163 8.67088C76.567 8.11722 75.8622 7.69374 75.0935 7.42744C74.1995 7.12701 73.2484 7.0364 72.3138 7.16262C71.3791 7.28884 70.486 7.62851 69.7037 8.15531C68.9215 8.68212 68.2709 9.38192 67.8025 10.2005C67.3341 11.0191 67.0605 11.9346 67.0027 12.8759C66.6235 10.5037 66.9586 8.07235 67.9654 5.89121ZM72.697 13.7157C73.0657 14.3917 74.0489 13.8796 73.8646 13.2037C73.5778 12.0771 74.0489 11.1554 75.0116 12.4458C75.2863 12.9081 75.4431 13.4309 75.468 13.9681C75.493 14.5054 75.3854 15.0405 75.1546 15.5262C74.9239 16.012 74.5771 16.4335 74.145 16.7536C73.7128 17.0737 73.2085 17.2826 72.6766 17.3617C68.9487 17.628 67.945 12.7735 69.727 10.336C70.0984 9.89985 70.5523 9.54146 71.0628 9.28151C71.5733 9.02157 72.1302 8.86519 72.7014 8.8214C73.2726 8.77761 73.8467 8.84727 74.3909 9.02636C74.935 9.20546 75.4384 9.49045 75.8719 9.86492C76.397 10.2791 76.7933 10.8342 77.0145 11.4654C77.2358 12.0965 77.2728 12.7776 77.1213 13.429C76.8346 11.5445 75.831 9.59864 73.6393 9.78299C71.4476 9.96733 72.062 12.5072 72.697 13.7157ZM62.2097 9.98782C62.327 8.17083 62.7422 6.38548 63.4387 4.7032C64.0532 3.14649 65.9786 0.87287 67.5353 3.20793C65.476 6.02755 64.6145 9.54683 65.1388 12.9988C65.3079 14.0836 65.7082 15.1193 66.3126 16.0358C66.917 16.9523 67.7113 17.7282 68.6417 18.311C69.5721 18.8937 70.617 19.2696 71.7054 19.4133C72.7938 19.557 73.9004 19.4651 74.9502 19.1437C76.5255 18.376 77.7802 17.0779 78.4937 15.4773C77.7973 19.7787 75.6875 24.0801 72.062 25.514C67.7196 27.2345 64.5243 22.2162 63.3158 18.8365C62.3677 15.9886 61.9918 12.9814 62.2097 9.98782Z" fill="#C2D5C9"/>
<path d="M55.9191 45.6893C55.8319 45.6195 55.7236 45.5815 55.6119 45.5815C55.5002 45.5815 55.3919 45.6195 55.3047 45.6893C54.936 45.9147 54.5877 46.1604 54.26 46.4062C53.2553 46.9405 52.3426 47.632 51.5563 48.4545C50.3816 49.7478 49.4329 51.2297 48.7501 52.8379C47.6276 55.0891 46.8606 57.5005 46.4765 59.9865C45.8592 62.6171 46.2648 65.3839 47.6112 67.7267C48.9575 70.0694 51.1439 71.8129 53.7275 72.604C59.2374 74.3861 64.2148 69.2653 65.8739 64.5747C67.2131 61.7989 67.7859 58.7156 67.533 55.6441C67.1812 52.8032 65.9576 50.1412 64.0305 48.0244C63.059 46.8792 61.7708 46.0466 60.3277 45.6311C58.8845 45.2157 57.3508 45.2359 55.9191 45.6893ZM61.7568 68.0773C56.5132 74.468 47.8284 69.2243 47.8898 61.9324C47.8898 61.7685 47.8898 61.5842 47.8898 61.3998C47.8898 61.748 48.0537 62.0758 48.1561 62.424C48.5686 63.6469 49.2228 64.7745 50.0798 65.7395C50.9368 66.7046 51.9791 67.4874 53.1447 68.0416C54.3104 68.5957 55.5755 68.9099 56.865 68.9652C58.1544 69.0206 59.4419 68.8162 60.6508 68.364C61.0906 68.2035 61.5155 68.0047 61.9207 67.77L61.7568 68.0773ZM57.6602 61.0721C56.4312 61.3793 54.0961 60.2937 56.3083 59.331C57.6397 58.7575 59.2784 59.925 60.2001 60.7444C63.0678 63.3457 57.1277 66.7664 54.8131 63.612C54.615 63.3455 54.4627 63.0478 54.3625 62.7312C54.9952 63.0598 55.6978 63.2313 56.4108 63.2313C57.1238 63.2313 57.8263 63.0598 58.4591 62.7312C59.4627 62.3625 58.7049 60.8263 57.7422 61.0721H57.6602ZM63.1496 63.4481C63.0461 63.6511 62.9226 63.8432 62.781 64.0217C63.2 63.2966 63.3177 62.4361 63.1087 61.6251C62.6757 60.3277 61.8535 59.1952 60.754 58.3816C59.6546 57.5679 58.3311 57.1128 56.9638 57.0779C56.4007 57.1079 55.8468 57.2325 55.3252 57.4466V57.3237C55.6492 56.6801 56.1153 56.1186 56.6884 55.6816C57.2614 55.2447 57.9263 54.9438 58.6327 54.8018C59.3392 54.6597 60.0687 54.6801 60.766 54.8615C61.4634 55.043 62.1104 55.3806 62.6581 55.8489C65.3209 57.7334 64.5835 61.1745 63.2316 63.4481H63.1496ZM63.7642 50.9125C64.7644 52.3224 65.3851 53.9659 65.5667 55.6851C64.8431 54.5372 63.8017 53.6241 62.569 53.0569C61.3363 52.4896 59.9654 52.2926 58.6229 52.4897C57.4314 52.879 56.3337 53.5115 55.3993 54.3471C54.4649 55.1828 53.7143 56.2033 53.1949 57.3442C51.29 61.0106 52.4985 65.5374 55.8167 66.7869C55.3283 66.6813 54.8488 66.5375 54.3829 66.3567C48.7706 64.0216 49.0573 56.914 51.3719 52.4078C52.449 50.1126 54.3501 48.3065 56.6975 47.3485C59.4627 46.4062 62.3099 48.7823 63.8461 50.9125H63.7642Z" fill="#C2D5C9"/>
</svg>
