<svg width="68" height="68" viewBox="0 0 68 68" fill="none" xmlns="http://www.w3.org/2000/svg">
<path opacity="0.1" fill-rule="evenodd" clip-rule="evenodd" d="M34 -1.03315e-06C52.7782 -1.03315e-06 68 15.2231 68 33.9992C68 52.7769 52.7782 68 34 68C15.2218 68 0 52.7769 0 33.9992C0 15.2231 15.2218 -1.03315e-06 34 -1.03315e-06Z" fill="#39B54A"/>
<path fill-rule="evenodd" clip-rule="evenodd" d="M34 16.9998C24.616 16.9998 17 24.6158 17 33.9998C17 43.3838 24.616 50.9998 34 50.9998C43.384 50.9998 51 43.3838 51 33.9998C51 24.6158 43.384 16.9998 34 16.9998ZM34 47.5998C26.503 47.5998 20.4 41.4968 20.4 33.9998C20.4 26.5028 26.503 20.3998 34 20.3998C41.497 20.3998 47.6 26.5028 47.6 33.9998C47.6 41.4968 41.497 47.5998 34 47.5998ZM30.6 37.6888L41.803 26.4858L44.2 28.8998L30.6 42.4998L23.8 35.6998L26.197 33.3028L30.6 37.6888Z" fill="#00A651"/>
</svg>
