<svg width="131" height="342" viewBox="0 0 131 342" fill="none" xmlns="http://www.w3.org/2000/svg">
<g opacity="0.5">
<path d="M80.3371 206.767C78.1822 206.494 61.8494 205.146 56.1143 201.89C49.7925 198.3 45.633 201.351 45.633 201.351C45.6532 201.304 45.6836 201.232 45.7038 201.185C46.6782 199.161 49.85 198.296 49.85 198.296C41.797 196.072 36.1222 198.534 36.1222 198.534C37.9246 195.685 40.0873 194.951 40.0873 194.951C33.2052 192.216 24.4296 195.572 24.4296 195.572C25.4818 193.497 27.9645 191.947 27.9645 191.947C19.6091 190.828 13.9642 194.536 13.9642 194.536C14.9346 192.257 16.6653 190.695 16.6653 190.695C9.7436 189.962 1.05638 193.44 1.05638 193.44C1.75563 191.074 4.18476 189.782 4.18476 189.782C-2.69874 189.485 -11.6664 194.806 -11.6664 194.806C-10.6524 192.294 -8.31778 189.644 -8.31778 189.644C-15.3824 190.168 -22.9357 196.315 -22.9357 196.315C-22.9493 193.253 -21.3161 190.472 -21.3161 190.472C-29.8161 191.338 -37.63 199.085 -37.63 199.085C-37.4151 196.737 -35.4461 194.155 -35.4461 194.155C-35.4461 194.155 -48.6993 208.221 -61.6343 210.086C-48.7116 211.805 -34.8062 225.831 -34.8062 225.831C-34.8062 225.831 -36.6683 223.159 -37.1531 219.953C-37.1531 219.953 -28.9937 227.325 -20.4467 227.797C-20.4467 227.797 -22.2175 225.108 -22.3462 222.053C-22.3462 222.053 -14.5257 227.852 -7.42905 228.043C-7.42905 228.043 -9.90743 225.501 -11.0172 223.038C-11.0172 223.038 -1.82013 227.908 5.05458 227.303C5.05458 227.303 2.5793 226.137 1.77808 223.805C1.77808 223.805 10.5985 226.861 17.4925 225.816C17.4925 225.816 15.6805 224.343 14.6186 222.096C14.6186 222.096 20.4117 225.545 28.7104 224.032C28.7104 224.032 26.1499 222.605 25.0208 220.582C25.0208 220.582 33.9256 223.506 40.6864 220.469C40.6864 220.469 38.4731 219.807 36.5599 217.058C36.5599 217.058 42.3469 219.27 50.2773 216.647C50.2773 216.647 47.0645 215.896 45.9864 213.951C45.949 213.907 45.9218 213.839 45.9082 213.805C45.9082 213.805 50.2531 216.441 56.3521 212.786C64.2372 208.097 78.082 207.125 80.3371 206.767Z" fill="white"/>
<path d="M-65.3195 210.115L-61.6998 209.582C-49.0966 207.772 -35.9445 193.943 -35.8025 193.807L-35.0457 194.466C-35.0558 194.49 -36.1466 195.932 -36.7628 197.576C-34.2172 195.351 -28.0563 190.629 -21.3714 189.944L-20.3724 189.837L-20.8853 190.712C-20.8954 190.735 -22.0764 192.784 -22.3792 195.206C-20.1676 193.569 -14.1609 189.538 -8.37311 189.115L-7.1302 189.028L-7.95118 189.968C-7.96129 189.992 -9.46484 191.678 -10.5276 193.581C-7.70594 192.091 -1.18899 189.035 4.1769 189.273L6.01974 189.357L4.38568 190.232C4.35183 190.245 2.85313 191.065 1.96226 192.564C4.565 191.654 11.0978 189.614 16.6812 190.197L17.8094 190.313L16.9779 191.081C16.9678 191.104 16.0145 191.96 15.1605 193.307C17.4073 192.245 21.99 190.636 28.0142 191.435L29.4136 191.639L28.1993 192.383C28.1654 192.397 26.7177 193.294 25.6198 194.621C28.4124 193.792 34.8076 192.338 40.2083 194.47L41.4525 194.972L40.1731 195.408C40.1494 195.398 38.8058 195.92 37.3801 197.555C39.6312 196.944 44.1515 196.206 49.8896 197.809L51.642 198.303L49.8918 198.791C49.858 198.804 48.5175 199.187 47.388 199.996C49.3073 199.439 52.4062 199.273 56.2725 201.453C61.2174 204.26 74.5493 205.676 78.9232 206.137C79.5636 206.214 80.0514 206.253 80.3191 206.283L83.8496 206.749L80.3349 207.299C80.0369 207.34 79.4985 207.42 78.7975 207.486C74.551 207.976 63.244 209.244 56.553 213.236C52.6831 215.541 49.4989 215.447 47.5875 214.997C48.8054 215.824 50.3068 216.183 50.3305 216.193L52.1131 216.616L50.3802 217.196C44.7141 219.045 40.1639 218.536 37.8899 218.017C39.3737 219.602 40.7397 220.015 40.7634 220.025L42.0582 220.409L40.8434 220.957C35.5443 223.326 29.0959 222.206 26.2659 221.477C27.4205 222.782 28.9263 223.592 28.9263 223.592L30.1472 224.28L28.7522 224.527C22.7864 225.631 18.1123 224.229 15.8238 223.282C16.7481 224.601 17.722 225.409 17.7356 225.442L18.6111 226.152L17.5005 226.324C11.9575 227.159 5.31129 225.45 2.67427 224.663C3.62931 226.107 5.18913 226.856 5.18913 226.856L6.86759 227.655L5.00499 227.815C-0.376292 228.271 -7.01456 225.555 -9.90693 224.183C-8.74093 226.054 -7.17585 227.646 -7.16223 227.679L-6.2863 228.585L-7.53625 228.558C-13.3491 228.381 -19.5189 224.632 -21.8087 223.095C-21.407 225.51 -20.1188 227.488 -20.1052 227.522L-19.5681 228.368L-20.5776 228.302C-27.397 227.921 -33.8836 223.336 -36.4591 221.286C-35.7932 223.672 -34.5257 225.502 -34.5121 225.536L-35.2931 226.184C-35.4627 226.056 -49.2152 212.264 -61.8228 210.595L-65.3195 210.115ZM-37.6075 196.992C-41.6975 200.801 -50.1465 207.801 -58.9889 210.063C-49.8248 212.312 -40.7882 219.666 -36.6916 223.346C-37.0968 222.388 -37.455 221.254 -37.6339 220.028L-37.8233 218.63L-36.7711 219.583C-36.6863 219.647 -29.2297 226.299 -21.3252 227.227C-21.8764 226.151 -22.7105 224.225 -22.8068 222.082L-22.86 221.021L-22.0117 221.663C-21.9506 221.717 -15.1278 226.698 -8.64293 227.469C-9.48853 226.492 -10.7319 224.869 -11.4773 223.262L-12.1036 221.902L-10.7776 222.607C-10.6827 222.647 -2.98124 226.684 3.42101 226.86C2.62023 226.238 1.74078 225.275 1.29073 223.962L0.953196 222.977L1.93285 223.31C2.00405 223.34 9.83115 226.029 16.3468 225.412C15.7051 224.746 14.7949 223.657 14.1449 222.287L13.4403 220.781L14.8784 221.618C14.9259 221.638 20.0303 224.597 27.348 223.676C26.476 223.025 25.3052 222.021 24.5945 220.793L23.9585 219.653L25.1856 220.064C25.2568 220.094 33.0734 222.61 39.3992 220.398C38.5241 219.885 37.2891 218.966 36.1372 217.326L35.1993 215.973L36.7248 216.539C36.7723 216.559 41.7149 218.384 48.5733 216.567C47.5053 216.112 46.1759 215.349 45.5364 214.151L44.6688 212.436L46.1442 213.317C46.3002 213.411 50.3362 215.719 56.0801 212.306C61.7562 208.919 70.5191 207.436 75.8625 206.74C69.9029 206.052 60.1345 204.696 55.8374 202.277C49.8989 198.906 46.0638 201.591 45.8981 201.716L44.471 202.763L45.1347 201.139C45.165 201.067 45.1953 200.996 45.2256 200.925C45.8326 199.698 47.1111 198.868 48.1329 198.378C41.1655 196.897 36.3433 198.936 36.2993 198.974L34.7901 199.621L35.6642 198.227C36.7274 196.52 37.9277 195.546 38.7834 194.985C32.3332 193.079 24.6608 195.951 24.5932 195.979L23.3612 196.435L23.948 195.255C24.5989 193.99 25.7244 192.928 26.5595 192.218C19.2079 191.638 14.2596 194.83 14.2156 194.867L12.8154 195.785L13.4623 194.266C14.0486 192.889 14.903 191.739 15.5077 191.043C8.98331 190.76 1.29773 193.795 1.1962 193.836L0.224901 194.207L0.510569 193.207C0.903924 191.889 1.74514 190.901 2.51251 190.219C-3.8849 190.69 -11.3947 195.09 -11.4725 195.141L-12.7545 195.913L-12.1919 194.526C-11.5283 192.902 -10.3601 191.213 -9.56636 190.205C-16.02 191.27 -22.5963 196.572 -22.6741 196.623L-23.4889 197.285L-23.4845 196.222C-23.4995 194.084 -22.7418 192.108 -22.2531 191.026C-30.1153 192.304 -37.2467 199.304 -37.3346 199.379L-38.3384 200.353L-38.1925 198.958C-38.0686 198.337 -37.8567 197.643 -37.6075 196.992Z" fill="#97BCAC"/>
<path d="M-61.6839 210.598L-61.6184 209.588L80.3292 206.259L80.4264 207.282C80.1284 207.323 79.59 207.403 78.889 207.468C74.6425 207.959 63.3354 209.227 56.6444 213.219C52.7746 215.524 49.5904 215.43 47.679 214.98C48.8968 215.807 50.3982 216.166 50.4219 216.176L52.2045 216.599L50.4716 217.179C44.8055 219.027 40.2553 218.519 37.9813 217.999C39.4651 219.585 40.8311 219.998 40.8548 220.008L42.1496 220.392L40.9348 220.94C35.6357 223.309 29.1873 222.189 26.3574 221.46C27.512 222.765 29.0177 223.575 29.0177 223.575L30.2386 224.263L28.8436 224.51C22.8778 225.614 18.2037 224.212 15.9152 223.265C16.8395 224.584 17.8134 225.391 17.8271 225.425L18.7025 226.135L17.5919 226.307C12.0489 227.142 5.40274 225.433 2.76573 224.646C3.72077 226.09 5.28056 226.839 5.28056 226.839L6.95903 227.638L5.09641 227.798C-0.284871 228.254 -6.92314 225.538 -9.81551 224.166C-8.6495 226.037 -7.08443 227.629 -7.07081 227.662L-6.19486 228.568L-7.44482 228.541C-13.2577 228.364 -19.4274 224.614 -21.7173 223.078C-21.3155 225.493 -20.0273 227.471 -20.0137 227.505L-19.4767 228.351L-20.4862 228.285C-27.3055 227.904 -33.7922 223.319 -36.3677 221.269C-35.7018 223.655 -34.4343 225.485 -34.4207 225.519L-35.2016 226.167C-35.3238 226.059 -49.0763 212.267 -61.6839 210.598ZM71.2746 207.506L-57.4366 210.5C-48.8034 213.14 -40.5438 219.882 -36.6678 223.356C-37.073 222.398 -37.4313 221.264 -37.6101 220.038L-37.7996 218.64L-36.7474 219.593C-36.6626 219.657 -29.2059 226.31 -21.3015 227.237C-21.8526 226.161 -22.6868 224.236 -22.783 222.092L-22.8362 221.032L-21.988 221.673C-21.9269 221.727 -15.1041 226.708 -8.61918 227.48C-9.46478 226.503 -10.7081 224.879 -11.4535 223.272L-12.0798 221.912L-10.7538 222.617C-10.6589 222.657 -2.9575 226.695 3.44475 226.87C2.64397 226.249 1.76454 225.285 1.31448 223.972L0.976936 222.987L1.95659 223.32C2.02779 223.35 9.85489 226.039 16.3705 225.422C15.7289 224.756 14.8187 223.667 14.1686 222.297L13.4641 220.791L14.9022 221.628C14.9496 221.648 20.054 224.607 27.3717 223.687C26.4998 223.035 25.3289 222.031 24.6183 220.803L23.9823 219.663L25.2094 220.074C25.2806 220.104 33.0972 222.62 39.4229 220.408C38.5479 219.895 37.3128 218.976 36.1609 217.336L35.223 215.983L36.7485 216.549C36.796 216.569 41.7386 218.394 48.5971 216.577C47.5291 216.122 46.1996 215.359 45.5601 214.162L44.6926 212.446L46.168 213.327C46.324 213.422 50.3599 215.729 56.1038 212.316C60.3323 209.827 66.3108 208.364 71.2746 207.506Z" fill="#97BCAC"/>
<path d="M26.1671 293.858C25.0257 292.391 15.9816 281.697 14.4824 276.264C12.833 270.262 8.45859 269.605 8.45859 269.605C8.49243 269.591 8.56011 269.564 8.59396 269.55C10.4047 268.92 12.8466 270.296 12.8466 270.296C9.32354 264.085 4.39758 262.155 4.39758 262.155C7.19062 261.522 8.96402 262.362 8.96402 262.362C6.44785 256.552 -0.882634 253.289 -0.882634 253.289C1.00943 252.665 3.42582 253.246 3.42582 253.246C-0.946371 247.514 -6.5887 246.345 -6.5887 246.345C-4.62588 245.554 -2.64417 245.641 -2.64417 245.641C-6.39401 241.016 -13.7175 237.869 -13.7175 237.869C-11.8601 236.865 -9.62304 237.538 -9.62304 237.538C-13.6093 233.204 -22.228 230.991 -22.228 230.991C-20.0995 230.075 -17.0819 229.903 -17.0819 229.903C-21.6804 225.953 -29.9606 225.118 -29.9606 225.118C-28.1086 223.272 -25.4579 222.578 -25.4579 222.578C-31.1249 217.977 -40.5245 217.927 -40.5245 217.927C-38.9726 216.653 -36.2332 216.278 -36.2332 216.278C-36.2332 216.278 -52.7313 216.766 -61.6818 210.065C-54.9112 218.921 -54.9921 235.766 -54.9921 235.766C-54.9921 235.766 -54.5003 233.032 -52.8557 230.816C-52.8557 230.816 -52.374 240.218 -47.5113 245.654C-47.5113 245.654 -46.9584 242.973 -45.1811 241.038C-45.1811 241.038 -43.95 249.273 -39.7976 253.678C-39.7976 253.678 -39.7637 250.636 -38.9353 248.493C-38.9353 248.493 -36.3114 257.013 -31.8047 260.783C-31.8047 260.783 -32.5989 258.566 -31.6615 256.694C-31.6615 256.694 -28.1837 263.868 -23.3795 267.4C-23.3795 267.4 -23.5702 265.412 -22.86 263.415C-22.86 263.415 -21.4316 269.015 -15.4948 273.113C-15.4948 273.113 -16.1843 270.717 -15.6433 268.788C-15.6433 268.788 -12.0165 275.941 -6.10082 278.18C-6.10082 278.18 -7.04971 276.458 -6.51747 273.628C-6.51747 273.628 -4.36257 278.444 2.00584 281.661C2.00584 281.661 0.496573 279.28 1.05473 277.442C1.07495 277.395 1.09517 277.348 1.11538 277.3C1.11538 277.3 2.15791 281.501 8.05164 283.002C15.623 284.909 24.5827 292.707 26.1671 293.858Z" fill="white"/>
<path d="M-39.2358 254.927L-40.088 254.031C-43.4357 250.502 -44.912 244.686 -45.4087 242.231C-46.543 243.907 -46.9285 245.734 -46.9386 245.758L-47.1328 246.74L-47.7916 245.983C-51.5881 241.73 -52.7814 235.25 -53.1435 232.348C-54.088 234.105 -54.4093 235.846 -54.4093 235.846L-55.4087 235.757C-55.4192 235.584 -55.4056 218.963 -61.9995 210.351L-64.2111 207.446L-61.2796 209.648C-52.5836 216.156 -36.3224 215.764 -36.1497 215.753L-36.0763 216.766C-36.1 216.756 -37.4172 216.952 -38.7133 217.493C-35.6812 217.747 -29.3721 218.668 -25.0557 222.161L-24.2888 222.796L-25.2671 223.052C-25.2909 223.042 -27.1324 223.547 -28.7115 224.753C-26.2617 225.124 -20.3856 226.337 -16.6898 229.509L-15.7497 230.33L-16.9926 230.418C-17.0163 230.407 -18.7537 230.537 -20.4836 230.978C-17.7718 231.852 -12.2697 233.943 -9.20372 237.212L-7.94059 238.591L-9.73023 238.053C-9.75396 238.043 -11.025 237.67 -12.3488 237.947C-10.1209 239.036 -5.12556 241.725 -2.18747 245.359L-1.47417 246.252L-2.59886 246.194C-2.59886 246.194 -3.56093 246.148 -4.78319 246.385C-2.72543 247.149 0.865773 248.987 3.90626 252.974L4.7725 254.1L3.39994 253.767C3.37621 253.757 2.12231 253.476 0.774353 253.546C3.07032 254.805 7.58533 257.765 9.50904 262.202L10.047 263.44L8.83307 262.867C8.83307 262.867 7.79894 262.398 6.13937 262.477C7.90311 263.536 10.9432 265.813 13.3543 270.092L14.2487 271.679L12.6682 270.781C12.6445 270.771 11.8542 270.322 10.8917 270.081C12.3469 271.009 14.0953 272.763 15.031 276.161C16.3218 280.833 23.5226 289.732 25.8731 292.64C26.2229 293.069 26.4844 293.377 26.6238 293.576L28.7844 296.403L25.8938 294.303C25.6766 294.154 25.3237 293.864 24.8385 293.489C21.9712 291.202 14.3906 285.17 7.95806 283.551C4.51806 282.675 2.67831 280.938 1.67931 279.531C1.89115 280.35 2.27221 281.102 2.48976 281.447L3.46194 282.982L1.82743 282.146C-2.55046 279.917 -4.98224 277.002 -6.12759 275.281C-6.14077 276.957 -5.60678 277.942 -5.61688 277.966L-4.9774 279.163L-6.23174 278.685C-10.7406 276.961 -13.8971 272.588 -15.2807 270.373C-15.3013 271.738 -14.9598 272.977 -14.9361 272.987L-14.5401 274.361L-15.7105 273.554C-19.8256 270.708 -21.8319 267.19 -22.6934 265.197C-22.8735 266.41 -22.7799 267.375 -22.7799 267.375L-22.6758 268.513L-23.5952 267.841C-27.3578 265.089 -30.2783 260.228 -31.4518 258.046C-31.6689 259.411 -31.236 260.633 -31.2223 260.667L-30.5952 262.42L-32.0205 261.224C-35.4583 258.302 -37.7872 252.908 -38.7823 250.241C-39.1611 251.986 -39.1708 253.721 -39.1809 253.744L-39.2358 254.927ZM-44.7635 239.927L-44.5952 240.98C-44.5916 241.037 -43.4955 248.009 -40.1425 252.381C-40.0603 251.267 -39.8234 249.657 -39.3286 248.298L-38.7998 246.925L-38.3665 248.343C-38.3392 248.411 -36.183 255.33 -32.5193 259.301C-32.5822 258.461 -32.5066 257.428 -32.0346 256.452L-31.5828 255.522L-31.1437 256.467C-31.1164 256.534 -28.054 262.773 -23.8493 266.331C-23.8172 265.531 -23.7011 264.403 -23.2871 263.234L-22.7351 261.674L-22.325 263.279C-22.3215 263.336 -21.061 268.079 -16.2155 271.909C-16.3531 270.982 -16.4168 269.749 -16.1144 268.644L-15.7751 267.386L-15.1831 268.564C-15.1559 268.632 -12.0328 274.728 -6.9666 277.251C-7.16834 276.408 -7.32697 275.134 -7.04262 273.545L-6.74818 271.932L-6.06739 273.428C-6.05376 273.462 -4.20564 277.417 0.858323 280.471C0.514194 279.568 0.233796 278.383 0.549803 277.312C0.57002 277.264 0.600331 277.193 0.596816 277.135L1.16597 275.668L1.54878 277.204C1.59318 277.364 2.61106 281.162 8.11496 282.525C13.385 283.844 19.288 287.956 22.9728 290.76C19.7662 286.702 14.9963 280.324 13.9476 276.401C12.4278 270.819 8.51403 270.133 8.32768 270.11L6.46066 269.819L8.40325 269.077C9.42202 268.726 10.6249 268.929 11.5334 269.232C8.2503 264.301 4.20908 262.664 4.16161 262.644L2.62247 262.044L4.2306 261.692C5.81501 261.329 7.09222 261.425 7.94618 261.592C5.19488 256.663 -1.05752 253.832 -1.12872 253.801L-2.32898 253.262L-1.09354 252.863C0.00653428 252.518 1.24286 252.512 2.16098 252.595C-1.9141 247.943 -6.69238 246.917 -6.73985 246.897L-8.36646 246.569L-6.83346 245.932C-5.70658 245.459 -4.57223 245.297 -3.77981 245.214C-7.58591 241.181 -13.8923 238.411 -13.9635 238.381L-14.9129 237.977L-13.9961 237.47C-13.0454 236.949 -12.0126 236.829 -11.1793 236.847C-15.333 233.368 -22.3216 231.541 -22.4029 231.534L-23.8466 231.171L-22.4728 230.579C-21.1666 230.014 -19.5312 229.729 -18.4307 229.581C-22.9461 226.424 -29.9729 225.674 -30.0305 225.678L-31.0774 225.568L-30.3372 224.818C-29.1071 223.575 -27.5235 222.82 -26.5522 222.449C-32.0583 218.589 -40.4555 218.49 -40.5368 218.483L-41.9357 218.476L-40.8572 217.589C-40.4718 217.277 -40.0252 217.019 -39.5651 216.794C-44.3618 216.601 -53.3061 215.68 -59.8688 211.931C-55.8974 218.67 -54.8567 228.141 -54.5785 232.886C-54.255 232.127 -53.83 231.327 -53.2626 230.587L-52.4183 229.46L-52.344 230.866C-52.3269 230.957 -51.861 239.343 -47.7336 244.662C-47.3904 243.659 -46.7368 242.058 -45.544 240.772L-44.7635 239.927Z" fill="#97BCAC"/>
<path d="M-61.6103 210.096C-54.8397 218.952 -54.9206 235.797 -54.9206 235.797C-54.9206 235.797 -54.4287 233.062 -52.7841 230.847C-52.7841 230.847 -52.3024 240.249 -47.4398 245.684C-47.4398 245.684 -46.8869 243.004 -45.1095 241.069C-45.1095 241.069 -43.8785 249.304 -39.726 253.708C-39.726 253.708 -39.6922 250.667 -38.8637 248.524C-38.8637 248.524 -36.2399 257.044 -31.7332 260.814C-31.7332 260.814 -32.5274 258.597 -31.5899 256.725C-31.5899 256.725 -28.1121 263.898 -23.3079 267.431C-23.3079 267.431 -23.4987 265.443 -22.7884 263.446C-22.7884 263.446 -21.36 269.045 -15.4232 273.144C-15.4232 273.144 -16.1128 270.748 -15.5718 268.819C-15.5718 268.819 -11.945 275.971 -6.02928 278.211C-6.02928 278.211 -6.97818 276.489 -6.44594 273.659C-6.44594 273.659 -4.29104 278.474 2.07737 281.692C2.07737 281.692 0.568099 279.31 1.12627 277.473C1.14649 277.426 1.1667 277.378 1.18692 277.331C1.18692 277.331 2.22944 281.532 8.12318 283.033C15.6945 284.94 24.678 292.748 26.2386 293.889L-61.6103 210.096Z" fill="white"/>
<path d="M-39.2358 254.927L-40.088 254.031C-43.4357 250.502 -44.912 244.686 -45.4086 242.232C-46.543 243.908 -46.9285 245.734 -46.9386 245.758L-47.1328 246.741L-47.7916 245.983C-51.5881 241.731 -52.7813 235.25 -53.1435 232.348C-54.088 234.105 -54.4092 235.847 -54.4092 235.847L-55.4087 235.758C-55.4192 235.585 -55.4056 218.964 -61.9995 210.351L-61.2321 209.669L26.5456 293.431L25.9004 294.222C25.6833 294.073 25.3303 293.783 24.8451 293.408C21.9778 291.121 14.3972 285.089 7.96466 283.47C4.52466 282.594 2.6849 280.857 1.68591 279.45C1.89775 280.269 2.27881 281.021 2.49636 281.366L3.46855 282.901L1.83405 282.065C-2.54385 279.836 -4.97564 276.921 -6.12099 275.2C-6.13417 276.877 -5.60016 277.861 -5.61026 277.885L-4.9708 279.082L-6.22514 278.604C-10.734 276.88 -13.8905 272.507 -15.2741 270.292C-15.2947 271.657 -14.9532 272.896 -14.9295 272.906L-14.5335 274.28L-15.7039 273.473C-19.819 270.627 -21.8253 267.109 -22.6868 265.116C-22.8669 266.329 -22.7733 267.294 -22.7733 267.294L-22.6692 268.432L-23.5886 267.76C-27.3512 265.008 -30.2717 260.147 -31.4452 257.965C-31.6623 259.33 -31.2294 260.552 -31.2158 260.586L-30.5886 262.339L-32.0139 261.143C-35.4517 258.221 -37.7806 252.827 -38.7757 250.16C-39.1545 251.905 -39.1642 253.64 -39.1743 253.663L-39.2358 254.927ZM-44.7635 239.927L-44.5951 240.98C-44.5916 241.038 -43.4955 248.01 -40.1425 252.382C-40.0603 251.267 -39.8234 249.658 -39.3286 248.298L-38.7998 246.925L-38.3665 248.344C-38.3392 248.411 -36.183 255.33 -32.5193 259.302C-32.5822 258.462 -32.5066 257.429 -32.0346 256.452L-31.5827 255.523L-31.1437 256.467C-31.1164 256.535 -28.054 262.774 -23.8492 266.331C-23.8172 265.532 -23.7011 264.403 -23.2871 263.234L-22.7351 261.675L-22.325 263.279C-22.3215 263.337 -21.061 268.079 -16.2155 271.91C-16.3531 270.982 -16.4168 269.749 -16.1144 268.644L-15.7751 267.387L-15.1831 268.564C-15.1559 268.632 -12.0327 274.729 -6.96659 277.251C-7.16832 276.408 -7.32696 275.135 -7.04261 273.545L-6.74816 271.933L-6.06738 273.428C-6.05375 273.462 -4.20562 277.418 0.858337 280.472C0.5142 279.568 0.233809 278.383 0.54981 277.312C0.570027 277.265 0.600337 277.193 0.596822 277.136L1.16599 275.668L1.5488 277.205C1.59318 277.364 2.61107 281.162 8.11498 282.525C11.9176 283.472 16.0656 285.911 19.4546 288.224L-59.1309 213.227C-55.7559 219.852 -54.829 228.406 -54.5684 232.863C-54.2449 232.103 -53.8199 231.303 -53.2525 230.563L-52.4082 229.437L-52.3339 230.843C-52.3168 230.934 -51.8509 239.32 -47.7235 244.639C-47.3803 243.635 -46.7267 242.035 -45.5339 240.749L-44.7635 239.927Z" fill="#97BCAC"/>
<path d="M67.5698 74.7345C65.9322 77.0652 52.7502 94.19 50.8419 102.686C48.7424 112.026 42.0523 113.382 42.0523 113.382C42.1235 113.413 42.1947 113.443 42.276 113.449C45.0893 114.283 48.7864 111.989 48.7864 111.989C43.8156 121.816 36.3678 125.149 36.3678 125.149C40.7154 125.935 43.3779 124.489 43.3779 124.489C39.9129 133.612 28.8796 139.175 28.8796 139.175C31.8418 139.988 35.5451 138.93 35.5451 138.93C29.2382 148.076 20.5888 150.28 20.5888 150.28C23.66 151.364 26.7282 151.072 26.7282 151.072C21.3083 158.465 10.217 163.835 10.217 163.835C13.1366 165.275 16.5515 164.038 16.5515 164.038C10.7242 171.005 -2.40247 175.031 -2.40247 175.031C0.933359 176.284 5.61803 176.344 5.61803 176.344C-1.15559 182.768 -13.8467 184.653 -13.8467 184.653C-10.8598 187.383 -6.71531 188.251 -6.71531 188.251C-15.0988 195.755 -29.5809 196.513 -29.5809 196.513C-27.0973 198.384 -22.8455 198.736 -22.8455 198.736C-22.8455 198.736 -48.3165 199.159 -61.5868 210.106C-51.7921 195.997 -53.1137 170.003 -53.1137 170.003C-53.1137 170.003 -52.1525 174.197 -49.4895 177.49C-49.4895 177.49 -49.4271 162.993 -42.3098 154.248C-42.3098 154.248 -41.2506 158.344 -38.3956 161.187C-38.3956 161.187 -37.0828 148.427 -31.0085 141.341C-31.0085 141.341 -30.7237 146.005 -29.3208 149.294C-29.3208 149.294 -25.9023 136.002 -19.2162 129.849C-19.2162 129.849 -20.2652 133.3 -18.7041 136.152C-18.7041 136.152 -13.8586 124.841 -6.71098 119.053C-6.71098 119.053 -6.87008 122.126 -5.63375 125.148C-5.63375 125.148 -3.85466 116.428 5.01494 109.692C5.01494 109.692 4.12232 113.433 5.09758 116.344C5.09758 116.344 10.1532 105.067 19.0935 101.192C19.0935 101.192 17.7685 103.908 18.7604 108.228C18.7604 108.228 21.7411 100.638 31.3148 95.2101C31.3148 95.2101 29.1995 98.9916 30.144 101.777C30.1712 101.845 30.1985 101.913 30.2156 102.004C30.2156 102.004 31.5253 95.44 40.4784 92.7203C51.9873 89.2667 65.2334 76.5993 67.5698 74.7345Z" fill="white"/>
<path d="M-64.1143 212.815L-62.021 209.809C-52.439 196.002 -53.6278 170.289 -53.6318 170.034L-52.6227 169.904C-52.6091 169.937 -51.8839 173.106 -49.9364 176.039C-49.7149 172.095 -48.5775 161.196 -42.6864 153.948L-42.0514 153.181L-41.7951 154.159C-41.7815 154.193 -40.924 157.446 -38.7401 160.087C-38.2699 156.81 -36.5202 147.041 -31.3714 141.075L-30.5504 140.135L-30.463 141.378C-30.4494 141.411 -30.2454 144.751 -29.348 147.713C-28.2215 144.015 -24.974 134.547 -19.5352 129.545L-18.156 128.282L-18.694 130.072C-18.7041 130.095 -19.4402 132.614 -18.6592 134.993C-17.2568 132.03 -12.9536 123.572 -7.00629 118.759L-6.11366 118.046L-6.17211 119.171C-6.18222 119.194 -6.25562 121.21 -5.64075 123.519C-4.69538 120.641 -1.98584 114.477 4.72976 109.374L5.85578 108.508L5.52351 109.88C5.5134 109.904 4.91962 112.483 5.27738 114.935C6.91321 111.818 11.6005 103.973 18.8962 100.8L20.1348 100.262L19.5617 101.476C19.5516 101.5 18.6312 103.463 19.011 106.653C20.384 104.153 23.878 98.9122 31.0837 94.8314L32.6703 93.937L31.7728 95.5175C31.7627 95.5412 30.4605 97.8746 30.4112 100.097C31.4766 97.8587 34.107 94.1845 40.3488 92.3007C50.2227 89.3284 61.5105 79.4158 65.7565 75.7007C66.436 75.0928 66.9634 74.6445 67.2948 74.3931L70.0706 72.1548L68.0177 75.0656C67.8151 75.3438 67.4539 75.8628 66.9405 76.5414C63.4926 81.2134 53.0241 95.4564 51.3707 102.827C49.9454 109.202 46.4729 111.957 44.2332 113.134C46.3938 112.932 48.5315 111.6 48.5654 111.586L50.101 110.614L49.2646 112.248C45.5315 119.631 40.4557 123.385 38.027 124.874C41.2182 125.084 43.1569 124.087 43.1907 124.073L44.3884 123.434L43.9102 124.688C41.0952 132.153 33.4852 137.183 30.4271 138.965C32.88 139.197 35.4256 138.486 35.4594 138.473L36.8236 138.101L36.0167 139.271C31.2393 146.208 25.1931 149.213 22.3807 150.286C24.7123 150.803 26.7239 150.622 26.7577 150.608L27.8956 150.504L27.2236 151.424C22.6884 157.595 14.4578 162.305 11.5448 163.812C13.9546 164.474 16.4219 163.618 16.4558 163.604L18.2089 162.977L17.0131 164.403C12.2735 170.066 2.96348 173.756 -0.678241 175.065C2.30423 175.83 5.64752 175.88 5.69499 175.9L6.94493 175.928L6.04924 176.78C0.323399 182.192 -9.34217 184.412 -12.6094 185.04C-9.88144 187.127 -6.59086 187.827 -6.5434 187.847L-5.56068 188.042L-6.31794 188.701C-13.2006 194.854 -23.8937 196.524 -27.9134 196.943C-25.6042 198.038 -22.8024 198.306 -22.7448 198.303L-22.7866 199.323C-23.0406 199.326 -48.2268 199.871 -61.2233 210.569L-64.1143 212.815ZM-52.5915 173.253C-52.6165 180.224 -53.3821 196.834 -59.7351 208.063C-49.4266 201.042 -33.8669 199.005 -26.7245 198.43C-27.8092 198.08 -28.9721 197.585 -29.9052 196.879L-31.0316 196.035L-29.6261 195.961C-29.4872 195.964 -16.0349 195.189 -7.78851 188.467C-9.23579 188.047 -11.9919 187.013 -14.1846 184.985L-14.9687 184.259L-13.9156 184.091C-13.8005 184.084 -2.41999 182.314 4.3589 176.733C2.72263 176.625 -0.207972 176.33 -2.55053 175.445L-3.95738 174.93L-2.5391 174.496C-2.41384 174.465 8.99654 170.914 15.0766 164.868C13.7594 165.064 11.8085 165.102 10.0214 164.229L9.09234 163.777L10.0364 163.338C10.1379 163.297 20.2377 158.346 25.7064 151.562C24.5039 151.555 22.5086 151.434 20.4645 150.704L18.9051 150.152L20.5097 149.742C20.6012 149.724 28.3465 147.668 34.3883 139.671C32.9934 139.918 30.755 140.17 28.779 139.609L27.5216 139.27L28.699 138.678C28.8005 138.637 38.717 133.523 42.4822 125.342C41.2569 125.717 39.1306 126.101 36.3147 125.603L34.7017 125.308L36.1973 124.628C36.265 124.6 42.7956 121.578 47.5967 113.136C46.2127 113.752 44.0363 114.452 42.1754 113.883C42.1042 113.853 41.9992 113.836 41.9043 113.796L40.2601 113.18L41.9834 112.82C42.2339 112.759 48.3685 111.39 50.381 102.518C51.8801 95.8383 60.0241 84.2222 64.5558 77.9931C59.3732 82.4589 49.4971 90.5053 40.6218 93.174C32.0308 95.7675 30.7237 101.996 30.6934 102.067L30.3752 103.67L29.7283 102.161C29.6773 102.083 29.6601 101.992 29.643 101.9C28.9987 100.056 29.5933 97.8697 30.1423 96.4492C21.9398 101.62 19.2281 108.315 19.2079 108.363L18.6185 109.878L18.2559 108.294C17.623 105.501 17.9197 103.356 18.2251 102.112C10.2033 106.266 5.59911 116.418 5.55867 116.513L5.0194 117.713L4.62033 116.477C3.98261 114.552 4.10962 112.278 4.31311 110.879C-3.38522 117.302 -5.0918 125.126 -5.09839 125.208L-5.4267 126.834L-6.05342 125.278C-6.85728 123.281 -7.0955 121.273 -7.14561 120.074C-13.6564 125.881 -18.1248 136.174 -18.1653 136.269L-18.5696 137.218L-19.0763 136.302C-20.0389 134.546 -20.0872 132.619 -19.9378 131.28C-25.6988 137.631 -28.7146 149.188 -28.7414 149.317L-29.104 150.76L-29.6965 149.387C-30.6805 147.089 -31.124 144.18 -31.3174 142.528C-36.5756 149.541 -37.7829 160.999 -37.8097 161.128L-37.9191 162.175L-38.6694 161.435C-40.7741 159.333 -41.9454 156.619 -42.4364 155.204C-48.7683 163.75 -48.9041 177.235 -48.9071 177.374L-48.9142 178.773L-49.8007 177.695C-51.1214 176.319 -51.999 174.627 -52.5915 173.253Z" fill="#97BCAC"/>
<path d="M-61.6104 210.096C-51.8156 195.987 -53.1373 169.993 -53.1373 169.993C-53.1373 169.993 -52.1761 174.187 -49.5131 177.481C-49.5131 177.481 -49.4507 162.983 -42.3334 154.238C-42.3334 154.238 -41.2742 158.335 -38.4192 161.177C-38.4192 161.177 -37.1064 148.418 -31.032 141.332C-31.032 141.332 -30.7472 145.995 -29.3443 149.284C-29.3443 149.284 -25.9259 135.992 -19.2398 129.839C-19.2398 129.839 -20.2888 133.29 -18.7277 136.142C-18.7277 136.142 -13.8822 124.831 -6.73458 119.043C-6.73458 119.043 -6.89367 122.116 -5.65734 125.138C-5.65734 125.138 -3.87825 116.419 4.99135 109.682C4.99135 109.682 4.09872 113.423 5.07398 116.334C5.07398 116.334 10.1296 105.057 19.07 101.182C19.07 101.182 17.7449 103.899 18.7368 108.218C18.7368 108.218 21.7175 100.628 31.2912 95.2003C31.2912 95.2003 29.1759 98.9818 30.1204 101.767C30.1476 101.835 30.1749 101.903 30.192 101.994C30.192 101.994 31.5017 95.4302 40.4548 92.7105C52.0076 89.2196 65.2437 76.5759 67.5902 74.6874L-61.6104 210.096Z" fill="white"/>
<path d="M-62.0209 209.809C-52.4389 196.001 -53.6278 170.288 -53.6317 170.034L-52.6226 169.903C-52.609 169.937 -51.8838 173.106 -49.9364 176.038C-49.7149 172.095 -48.5775 161.196 -42.6864 153.947L-42.0513 153.181L-41.7951 154.159C-41.7814 154.193 -40.924 157.446 -38.7401 160.086C-38.2698 156.81 -36.5202 147.041 -31.3714 141.074L-30.5504 140.134L-30.4629 141.377C-30.4493 141.411 -30.2454 144.75 -29.3479 147.712C-28.2215 144.014 -24.974 134.546 -19.5351 129.545L-18.156 128.282L-18.6939 130.071C-18.704 130.095 -19.4402 132.614 -18.6592 134.993C-17.2567 132.029 -12.9536 123.572 -7.00624 118.759L-6.11361 118.046L-6.17206 119.17C-6.18217 119.194 -6.25557 121.21 -5.6407 123.518C-4.69533 120.641 -1.98579 114.477 4.72981 109.374L5.85582 108.508L5.52355 109.88C5.51345 109.904 4.91967 112.483 5.27743 114.935C6.91325 111.818 11.6005 103.973 18.8963 100.8L20.1348 100.262L19.5617 101.476C19.5516 101.499 18.6313 103.463 19.011 106.653C20.384 104.153 23.8781 98.9119 31.0837 94.8311L32.6703 93.9367L31.7729 95.5172C31.7627 95.541 30.4605 97.8743 30.4113 100.096C31.4766 97.8585 34.1071 94.1842 40.3489 92.3005C50.2228 89.3281 61.5105 79.4155 65.7565 75.7004C66.436 75.0926 66.9634 74.6442 67.2948 74.3929L67.9875 75.1365L-61.1929 210.498L-62.0209 209.809ZM-52.5914 173.253C-52.6002 179.923 -53.3074 195.407 -58.9255 206.557L60.5326 81.3823C55.0788 85.7607 47.5136 91.1464 40.5915 93.245C32.0005 95.8385 30.6934 102.067 30.6631 102.138L30.3449 103.741L29.698 102.232C29.647 102.154 29.6298 102.063 29.6127 101.971C28.9684 100.127 29.563 97.9406 30.112 96.5201C21.9095 101.69 19.1978 108.386 19.1776 108.434L18.5882 109.949L18.2256 108.365C17.5928 105.572 17.8894 103.427 18.1948 102.183C10.173 106.337 5.56883 116.489 5.5284 116.583L4.98913 117.784L4.59006 116.548C3.95233 114.622 4.07934 112.349 4.28283 110.95C-3.4155 117.372 -5.12207 125.197 -5.12866 125.279L-5.45697 126.905L-6.0837 125.349C-6.88755 123.352 -7.12578 121.344 -7.17588 120.145C-13.6867 125.952 -18.1551 136.245 -18.1955 136.34L-18.5999 137.289L-19.1066 136.373C-20.0691 134.617 -20.1175 132.69 -19.968 131.351C-25.729 137.702 -28.7449 149.259 -28.7717 149.388L-29.1343 150.831L-29.7267 149.458C-30.7108 147.16 -31.1543 144.251 -31.3477 142.599C-36.6059 149.612 -37.8132 161.07 -37.84 161.199L-37.9494 162.246L-38.6996 161.506C-40.8044 159.403 -41.9757 156.69 -42.4666 155.275C-48.7985 163.821 -48.9343 177.306 -48.9374 177.445L-48.9444 178.844L-49.8309 177.766C-51.1213 176.319 -51.999 174.627 -52.5914 173.253Z" fill="#97BCAC"/>
</g>
</svg>
