<svg width="20" height="14" viewBox="0 0 20 14" fill="none" xmlns="http://www.w3.org/2000/svg">
<path d="M9.04588 5.33325H5.71252V8.66661H9.04588V5.33325Z" fill="#7E8483"/>
<path d="M4.04588 0.333252H0.712524V3.66661H4.04588V0.333252Z" fill="#7E8483"/>
<path d="M9.04588 10.3333H5.71252V13.6666H9.04588V10.3333Z" fill="#7E8483"/>
<path d="M4.04588 5.33325H0.712524V8.66661H4.04588V5.33325Z" fill="#7E8483"/>
<path d="M4.04588 10.3333H0.712524V13.6666H4.04588V10.3333Z" fill="#7E8483"/>
<path d="M14.0459 0.333252H10.7125V3.66661H14.0459V0.333252Z" fill="#7E8483"/>
<path d="M19.0458 0.333252H15.7124V3.66661H19.0458V0.333252Z" fill="#7E8483"/>
<path d="M9.04588 0.333252H5.71252V3.66661H9.04588V0.333252Z" fill="#7E8483"/>
<path d="M14.0459 5.33325H10.7125V8.66661H14.0459V5.33325Z" fill="#7E8483"/>
<path d="M19.0458 5.33325H15.7124V8.66661H19.0458V5.33325Z" fill="#7E8483"/>
<path d="M14.0459 10.3333H10.7125V13.6666H14.0459V10.3333Z" fill="#7E8483"/>
<path d="M19.0458 10.3333H15.7124V13.6666H19.0458V10.3333Z" fill="#7E8483"/>
</svg>
