<svg width="46" height="46" viewBox="0 0 46 46" fill="none" xmlns="http://www.w3.org/2000/svg">
<path d="M41.957 6.82812H4.04297C1.80918 6.82812 0 8.64854 0 10.8711V35.1289C0 37.3647 1.82248 39.1719 4.04297 39.1719H41.957C44.1721 39.1719 46 37.3723 46 35.1289V10.8711C46 8.65249 44.198 6.82812 41.957 6.82812ZM41.3908 9.52344C40.5648 10.3451 26.3496 24.4854 25.8588 24.9736C25.0952 25.7373 24.0799 26.1577 23 26.1577C21.9201 26.1577 20.9048 25.7372 20.1387 24.9711C19.8086 24.6427 5.75027 10.6585 4.60916 9.52344H41.3908ZM2.69531 34.5803V11.4214L14.3425 23.0072L2.69531 34.5803ZM4.61087 36.4766L16.2535 24.908L18.2353 26.8795C19.508 28.1522 21.2002 28.8531 23 28.8531C24.7998 28.8531 26.492 28.1522 27.7622 26.882L29.7465 24.908L41.3891 36.4766H4.61087ZM43.3047 34.5803L31.6575 23.0072L43.3047 11.4214V34.5803Z" fill="#00A651"/>
</svg>
