<svg width="20" height="20" viewBox="0 0 20 20" fill="none" xmlns="http://www.w3.org/2000/svg">
<path fill-rule="evenodd" clip-rule="evenodd" d="M9.99998 3.33325C8.15831 3.33325 6.66665 4.82492 6.66665 6.66659C6.66665 8.50825 8.15831 9.99992 9.99998 9.99992C11.8416 9.99992 13.3333 8.50825 13.3333 6.66659C13.3333 4.82492 11.8416 3.33325 9.99998 3.33325ZM11.75 6.66658C11.75 5.69992 10.9666 4.91659 9.99998 4.91659C9.03331 4.91659 8.24998 5.69992 8.24998 6.66658C8.24998 7.63325 9.03331 8.41658 9.99998 8.41658C10.9666 8.41658 11.75 7.63325 11.75 6.66658ZM15.0833 14.1666C15.0833 13.6333 12.475 12.4166 9.99998 12.4166C7.52498 12.4166 4.91665 13.6333 4.91665 14.1666V15.0833H15.0833V14.1666ZM3.33331 14.1666C3.33331 11.9499 7.77498 10.8333 9.99998 10.8333C12.225 10.8333 16.6666 11.9499 16.6666 14.1666V16.6666H3.33331V14.1666Z" fill="#3B4D49"/>
</svg>
