<svg width="51" height="51" viewBox="0 0 51 51" fill="none" xmlns="http://www.w3.org/2000/svg">
<path d="M39.9646 44.3262C42.4244 44.3262 44.4258 42.3154 44.4258 39.8438V33.8672C44.4258 33.2244 44.0147 32.6537 43.4052 32.45L34.4616 29.4618C34.0237 29.3155 33.5433 29.3798 33.1593 29.6357L29.3559 32.1712C25.2741 30.2344 20.4497 25.4528 18.5308 21.4435L21.0655 17.6415C21.3214 17.2576 21.3856 16.7769 21.2394 16.3392L18.2511 7.3956C18.0474 6.78599 17.4768 6.375 16.834 6.375H10.8574C8.38581 6.375 6.375 8.37625 6.375 10.8362C6.375 19.0915 10.1287 27.5642 16.6736 34.0817C23.2114 40.5922 31.7007 44.3262 39.9646 44.3262ZM10.8574 9.36328H15.7579L18.1734 16.5925L15.5909 20.4663C15.3179 20.8757 15.264 21.3932 15.4468 21.85C16.4404 24.334 18.4288 27.1277 21.0457 29.7167C23.6453 32.2885 26.4527 34.2552 28.9508 35.2543C29.4075 35.437 29.9251 35.3831 30.3344 35.1103L34.2083 32.5277L41.4375 34.9433V39.8438C41.4375 40.6816 40.7905 41.3379 39.9646 41.3379C24.235 41.3379 9.36328 26.5146 9.36328 10.8362C9.36328 10.0102 10.0196 9.36328 10.8574 9.36328Z" fill="#00A651"/>
</svg>
