<svg width="46" height="46" viewBox="0 0 46 46" fill="none" xmlns="http://www.w3.org/2000/svg">
<path d="M38.2695 7.99798C34.7578 2.91552 29.1923 0 23.001 0C16.8098 0 11.2443 2.91552 7.73253 7.99798C4.23806 13.0547 3.43117 19.4567 5.56982 25.1129C6.14185 26.6574 7.05116 28.1581 8.26603 29.5643L21.7766 45.4338C22.0821 45.793 22.5298 46 23.001 46C23.4723 46 23.92 45.7931 24.2255 45.4338L37.7323 29.5687C38.9525 28.1543 39.8607 26.6553 40.4279 25.1231C42.5709 19.4567 41.764 13.0547 38.2695 7.99798ZM37.416 23.9966C36.9786 25.1788 36.2644 26.3476 35.2945 27.4718C35.2918 27.4745 35.2891 27.4772 35.287 27.4804L23.001 41.9109L10.7075 27.4713C9.73821 26.3481 9.02404 25.1794 8.58228 23.9859C6.81361 19.3082 7.48484 14.015 10.3783 9.82729C13.2809 5.6262 17.882 3.21677 23.001 3.21677C28.12 3.21677 32.7205 5.62611 35.6232 9.82729C38.5172 14.015 39.189 19.3082 37.416 23.9966Z" fill="#00A651"/>
<path d="M23.0012 9.54309C18.035 9.54309 13.9941 13.5834 13.9941 18.5501C13.9941 23.5168 18.0344 27.5571 23.0012 27.5571C27.9679 27.5571 32.0082 23.5168 32.0082 18.5501C32.0082 13.5839 27.9674 9.54309 23.0012 9.54309ZM23.0012 24.3403C19.8085 24.3403 17.2109 21.7427 17.2109 18.55C17.2109 15.3573 19.8085 12.7598 23.0012 12.7598C26.1938 12.7598 28.7914 15.3573 28.7914 18.55C28.7914 21.7427 26.1938 24.3403 23.0012 24.3403Z" fill="#00A651"/>
</svg>
