<svg width="13" height="17" viewBox="0 0 13 17" fill="none" xmlns="http://www.w3.org/2000/svg">
<path fill-rule="evenodd" clip-rule="evenodd" d="M6.5 0.583252C3.43625 0.583252 0.958336 3.06117 0.958336 6.12492C0.958336 10.2812 6.5 16.4166 6.5 16.4166C6.5 16.4166 12.0417 10.2812 12.0417 6.12492C12.0417 3.06117 9.56375 0.583252 6.5 0.583252ZM2.54167 6.12492C2.54167 3.93992 4.315 2.16659 6.5 2.16659C8.685 2.16659 10.4583 3.93992 10.4583 6.12492C10.4583 8.40492 8.17834 11.817 6.5 13.9466C4.85334 11.8328 2.54167 8.38117 2.54167 6.12492ZM4.52084 6.12492C4.52084 5.03185 5.40694 4.14575 6.5 4.14575C7.20709 4.14575 7.86047 4.52298 8.21401 5.13533C8.56756 5.74769 8.56756 6.50214 8.21401 7.1145C7.86047 7.72686 7.20709 8.10408 6.5 8.10408C5.40694 8.10408 4.52084 7.21798 4.52084 6.12492Z" fill="#00A651"/>
</svg>
