<svg width="20" height="20" viewBox="0 0 20 20" fill="none" xmlns="http://www.w3.org/2000/svg">
<path fill-rule="evenodd" clip-rule="evenodd" d="M12.4709 11.8791H13.1292L17.2875 16.0457L16.0459 17.2874L11.8792 13.1291V12.4707L11.6542 12.2374C10.7042 13.0541 9.47086 13.5457 8.12919 13.5457C5.13752 13.5457 2.71252 11.1207 2.71252 8.12907C2.71252 5.1374 5.13752 2.7124 8.12919 2.7124C11.1209 2.7124 13.5459 5.1374 13.5459 8.12907C13.5459 9.47074 13.0542 10.7041 12.2375 11.6541L12.4709 11.8791ZM4.37919 8.12907C4.37919 10.2041 6.05419 11.8791 8.12919 11.8791C10.2042 11.8791 11.8792 10.2041 11.8792 8.12907C11.8792 6.05407 10.2042 4.37907 8.12919 4.37907C6.05419 4.37907 4.37919 6.05407 4.37919 8.12907Z" fill="#3B4D49"/>
</svg>
